<svg width="604" height="1242" viewBox="0 0 604 1242" fill="none" xmlns="http://www.w3.org/2000/svg">
<path d="M375.582 192.709C368.578 198.904 361.027 204.81 353.22 209.972C349.94 212.14 346.546 214.172 343.36 216.481C341.842 217.581 339.936 218.811 338.665 220.187C338.461 220.408 337.701 220.662 337.95 221.039C339.398 223.226 342.164 225.274 344.15 226.982C346.556 229.051 349.552 230.304 352.26 231.914C356.183 234.246 360.166 236.334 364.238 238.398C368.874 240.748 373.156 243.625 377.565 246.36C380.801 248.367 384.143 250.121 387.326 252.229C393.32 256.2 399.42 260.022 405.23 264.256C407.189 265.684 409.339 266.874 411.24 268.329C412.952 269.639 414.524 271.097 416.201 272.442C416.688 272.833 418.113 274.84 418.677 274.877C419.07 274.902 419.155 275.121 419.462 275.326C420.084 275.741 421.879 274.628 422.407 274.407C426.088 272.867 428.875 270.791 431.597 267.942C436.586 262.719 443.289 258.819 449.198 254.731C453.558 251.716 458.204 249.373 462.661 246.557C464.747 245.239 466.761 244.053 468.983 242.968C470.429 242.262 471.875 241.556 473.321 240.85C473.589 240.72 475.995 239.829 476.037 239.462C476.081 239.072 474.463 237.88 474.436 237.856C473.006 236.622 471.552 235.418 470.127 234.178C466.875 231.348 463.596 228.655 460.083 226.153C454.604 222.251 449.022 218.524 443.558 214.6C438.682 211.1 433.144 208.676 428.101 205.432C426.193 204.203 424.088 203.329 422.077 202.293C419.7 201.069 417.506 199.63 415.073 198.502C412.517 197.316 409.936 196.048 407.451 194.73C405.585 193.739 403.707 192.35 401.691 191.714C398.37 190.666 395.563 188.364 392.334 187.06C390.772 186.429 389.326 185.683 387.634 185.412C387.204 185.343 386.499 185 386.097 185.063C385.109 185.218 384.153 186.493 383.438 187.114C381.866 188.483 380.204 189.719 378.621 191.084C377.388 192.148 375.847 192.562 374.663 193.723" stroke="white" stroke-opacity="0.9" stroke-width="9" stroke-linecap="round"/>
<path d="M475.25 239.909C468.62 238.399 462.641 234.552 456.204 232.43C453.704 231.606 451.076 230.83 448.437 230.645C446.015 230.475 443.59 230.548 441.173 230.279C437.515 229.871 433.753 228.492 430.052 228.671C427.652 228.786 425.378 229.185 423.012 229.437C418.533 229.914 413.862 230.991 409.759 232.859C408.959 233.223 408.098 233.426 407.288 233.782C406.525 234.118 406.354 230.26 406.302 229.897C405.618 225.097 404.432 220.393 402.85 215.81C402.005 213.362 401.347 210.801 400.421 208.388C399.76 206.668 399.504 204.7 398.729 203.056C397.604 200.669 396.619 198.22 395.49 195.841C394.489 193.733 393.65 191.903 392.147 190.152C390.643 188.4 389.033 186.899 387.472 185.208" stroke="white" stroke-opacity="0.9" stroke-width="9" stroke-linecap="round"/>
<path d="M547.383 30.3564C538.751 26.7618 530.14 22.5494 522.087 17.7809C518.703 15.7774 515.393 13.6123 511.924 11.7546C510.272 10.87 508.332 9.69233 506.54 9.15018C506.252 9.06302 505.691 8.49011 505.461 8.87889C504.126 11.1371 503.492 14.5199 502.823 17.052C502.012 20.1202 502.195 23.3625 501.929 26.5017C501.544 31.0495 501.406 35.544 501.328 40.1087C501.239 45.3059 500.522 50.4147 499.988 55.5752C499.595 59.3625 499.478 63.1356 498.971 66.92C498.017 74.0454 497.244 81.2027 495.973 88.2788C495.544 90.6643 495.412 93.1182 494.934 95.4635C494.504 97.5763 493.879 99.6272 493.402 101.723C493.263 102.332 492.079 104.49 492.293 105.015C492.441 105.379 492.282 105.551 492.231 105.917C492.13 106.658 493.915 107.786 494.344 108.164C497.337 110.803 500.422 112.403 504.175 113.607C511.052 115.814 517.488 120.14 523.747 123.67C528.364 126.275 532.5 129.431 536.98 132.21C539.077 133.511 541.024 134.804 542.97 136.329C544.237 137.322 545.504 138.314 546.77 139.307C547.004 139.49 548.857 141.266 549.205 141.143C549.575 141.012 549.941 139.037 549.951 139.001C550.436 137.176 550.884 135.342 551.377 133.519C552.502 129.357 553.493 125.231 554.209 120.979C555.326 114.345 556.24 107.696 557.383 101.067C558.402 95.1516 558.163 89.111 558.879 83.1578C559.15 80.9042 559.017 78.6289 559.071 76.3676C559.134 73.6948 559.47 71.0931 559.422 68.4116C559.372 65.5934 559.385 62.7186 559.486 59.9073C559.562 57.7963 559.991 55.4997 559.683 53.408C559.175 49.9634 560.019 46.4324 559.782 42.9588C559.667 41.2777 559.707 39.6511 559.212 38.0106C559.086 37.5935 559.087 36.8094 558.854 36.4753C558.284 35.6546 556.719 35.351 555.847 34.98C553.929 34.1634 552.092 33.2087 550.173 32.3808C548.677 31.7354 547.631 30.5304 546.07 29.9728" stroke="white" stroke-opacity="0.9" stroke-width="9" stroke-linecap="round"/>
<path d="M548.459 140.63C546.922 134.007 547.771 126.948 546.868 120.231C546.518 117.622 546.067 114.919 545.081 112.464C544.176 110.211 543.051 108.062 542.237 105.77C541.006 102.301 540.603 98.3147 538.826 95.0635C537.674 92.9554 536.322 91.0836 535.062 89.0651C532.676 85.2441 529.667 81.5137 526.195 78.6383C525.518 78.0777 524.959 77.3919 524.285 76.8189C523.649 76.2787 527.045 74.4403 527.35 74.2348C531.369 71.5227 535.082 68.4009 538.513 64.9766C540.347 63.1469 542.363 61.4363 544.129 59.5491C545.388 58.2036 547.046 57.1137 548.186 55.6983C549.842 53.6438 551.615 51.6876 553.262 49.6324C554.721 47.8118 556 46.2578 556.919 44.1409C557.838 42.0227 558.485 39.9187 559.324 37.7758" stroke="white" stroke-opacity="0.9" stroke-width="9" stroke-linecap="round"/>
<path d="M337.94 560.52C328.793 562.376 319.379 563.567 310.193 563.806C306.334 563.907 302.464 563.789 298.597 564.1C296.756 564.247 294.53 564.274 292.725 564.875C292.435 564.972 291.684 564.734 291.664 565.294C291.545 568.548 292.553 572.53 293.139 575.638C293.848 579.403 295.5 582.702 296.715 586.186C298.476 591.233 300.426 596.062 302.461 600.926C304.777 606.464 306.509 612.32 308.421 618.111C309.825 622.361 311.461 626.416 312.765 630.737C315.219 638.874 317.844 646.927 320 655.219C320.727 658.014 321.743 660.688 322.408 663.474C323.008 665.983 323.41 668.554 323.961 671.076C324.121 671.809 324.088 674.859 324.515 675.272C324.812 675.559 324.752 675.845 324.877 676.264C325.13 677.111 327.2 677.133 327.746 677.251C331.559 678.076 334.974 677.745 338.785 676.56C345.77 674.389 353.348 674.74 360.406 674.369C365.613 674.095 370.657 674.718 375.825 674.718C378.244 674.717 380.529 674.808 382.921 675.143C384.477 675.361 386.034 675.579 387.59 675.797C387.878 675.837 390.304 676.498 390.549 676.14C390.81 675.761 390.218 673.438 390.21 673.395C389.79 671.153 389.334 668.926 388.923 666.682C387.983 661.557 386.941 656.559 385.604 651.607C383.518 643.882 381.249 636.273 379.187 628.536C377.348 621.632 374.358 615.419 372.237 608.674C371.435 606.12 370.271 603.808 369.276 601.389C368.099 598.53 367.193 595.567 365.917 592.77C364.575 589.832 363.262 586.792 362.055 583.762C361.148 581.487 360.463 578.784 359.232 576.78C357.205 573.481 356.311 569.205 354.505 565.698C353.631 564.001 352.916 562.26 351.731 560.854C351.43 560.496 351.07 559.669 350.714 559.469C349.841 558.977 348.343 559.68 347.416 559.859C345.375 560.252 343.34 560.448 341.293 560.83C339.698 561.128 338.235 560.541 336.623 560.975" stroke="white" stroke-opacity="0.9" stroke-width="9" stroke-linecap="round"/>
<path d="M389.666 676.088C385.281 670.11 382.766 662.112 378.889 655.619C377.383 653.098 375.747 650.543 373.76 648.599C371.938 646.816 369.971 645.286 368.209 643.401C365.543 640.549 363.357 636.609 360.318 634.343C358.347 632.874 356.311 631.785 354.287 630.481C350.457 628.013 346.127 626.047 341.789 625.287C340.943 625.138 340.142 624.781 339.293 624.618C338.493 624.464 340.593 620.304 340.763 619.888C343.002 614.4 344.787 608.68 346.188 602.825C346.936 599.696 347.898 596.574 348.561 593.429C349.034 591.187 349.971 588.953 350.309 586.715C350.8 583.466 351.437 580.244 351.92 576.999C352.348 574.125 352.743 571.65 352.565 568.817C352.387 565.982 351.979 563.341 351.72 560.533" stroke="white" stroke-opacity="0.9" stroke-width="9" stroke-linecap="round"/>
<path d="M44.5983 1204.64C52.4983 1209.61 60.1322 1215.25 66.9449 1221.41C69.8072 1224 72.5263 1226.76 75.5387 1229.21C76.973 1230.37 78.6022 1231.89 80.3231 1232.7C80.5998 1232.83 80.9791 1233.52 81.3805 1233.13C83.7119 1230.85 85.7307 1227.28 87.4517 1224.62C89.537 1221.41 90.6192 1217.88 92.1442 1214.52C94.3533 1209.65 96.2746 1204.81 98.1597 1199.89C100.306 1194.28 103.094 1188.85 105.707 1183.34C107.624 1179.3 109.239 1175.23 111.279 1171.21C115.119 1163.62 118.777 1155.98 122.939 1148.5C124.343 1145.97 125.453 1143.34 126.894 1140.86C128.192 1138.63 129.676 1136.49 131.018 1134.29C131.408 1133.65 133.537 1131.46 133.513 1130.87C133.496 1130.46 133.737 1130.29 133.935 1129.9C134.337 1129.11 132.855 1127.67 132.541 1127.21C130.351 1123.98 127.652 1121.86 124.076 1120.09C117.522 1116.84 112.281 1111.35 106.918 1106.75C102.961 1103.36 99.7406 1099.42 96.0009 1095.86C94.25 1094.19 92.659 1092.54 91.1597 1090.65C90.1837 1089.42 89.2078 1088.19 88.2319 1086.96C88.0515 1086.73 86.7516 1084.58 86.3277 1084.66C85.8765 1084.76 84.7022 1086.85 84.6781 1086.89C83.4348 1088.8 82.2277 1090.72 80.9764 1092.63C78.1198 1096.99 75.4235 1101.32 72.9733 1105.83C69.1513 1112.86 65.5415 1119.93 61.6935 1126.95C58.26 1133.22 56.1358 1139.78 53.0144 1146.12C51.8328 1148.53 51.0789 1151 50.1296 1153.44C49.0075 1156.32 47.6184 1159.09 46.612 1162C45.5543 1165.05 44.4064 1168.15 43.1888 1171.18C42.2745 1173.45 40.9052 1175.88 40.4132 1178.18C39.6029 1181.97 37.2986 1185.68 36.1846 1189.46C35.6455 1191.29 34.9615 1193.05 34.8486 1194.88C34.8199 1195.35 34.5097 1196.2 34.6287 1196.59C34.9212 1197.54 36.4906 1198.07 37.2849 1198.58C39.0334 1199.7 40.6405 1200.97 42.3855 1202.1C43.7456 1202.99 44.3988 1204.42 45.8649 1205.22" stroke="white" stroke-opacity="0.9" stroke-width="9" stroke-linecap="round"/>
<path d="M86.9307 1085.31C85.9778 1092.66 82.2771 1100.19 80.6022 1107.56C79.9517 1110.43 79.3722 1113.4 79.4681 1116.18C79.5561 1118.73 79.9232 1121.2 79.8975 1123.77C79.8586 1127.68 78.7209 1132.04 79.3566 1135.78C79.7688 1138.2 80.4903 1140.39 81.0545 1142.73C82.1225 1147.16 83.8995 1151.57 86.5137 1155.12C87.0233 1155.81 87.3564 1156.62 87.8579 1157.32C88.3307 1157.99 83.9401 1159.55 83.5303 1159.73C78.122 1162.16 72.8828 1165.07 67.8279 1168.34C65.1269 1170.08 62.2756 1171.68 59.6253 1173.5C57.7358 1174.79 55.5162 1175.76 53.7266 1177.15C51.129 1179.16 48.4437 1181.05 45.8552 1183.07C43.562 1184.85 41.568 1186.37 39.7414 1188.54C37.9137 1190.72 36.3857 1192.91 34.6349 1195.12" stroke="white" stroke-opacity="0.9" stroke-width="9" stroke-linecap="round"/>
<path d="M180.43 896.044C184.3 903.645 187.46 911.584 189.488 919.48C190.34 922.797 190.944 926.159 192.037 929.448C192.558 931.015 193.014 932.933 194.046 934.395C194.212 934.63 194.083 935.317 194.728 935.244C198.475 934.821 202.839 933.308 206.283 932.3C210.456 931.079 213.917 929.12 217.672 927.508C223.111 925.172 228.265 922.708 233.443 920.165C239.339 917.27 245.709 914.83 251.971 912.243C256.566 910.344 260.894 908.276 265.591 906.453C274.434 903.019 283.148 899.452 292.226 896.25C295.286 895.171 298.152 893.862 301.213 892.838C303.97 891.915 306.835 891.152 309.616 890.269C310.425 890.013 313.921 889.549 314.312 889.113C314.584 888.811 314.923 888.816 315.378 888.64C316.299 888.285 315.929 886.494 315.96 886.003C316.176 882.577 315.146 879.68 313.062 876.579C309.244 870.897 308.199 864.294 306.427 858.258C305.12 853.805 304.87 849.348 303.883 844.884C303.421 842.795 303.088 840.806 303.015 838.686C302.967 837.307 302.92 835.927 302.872 834.547C302.863 834.292 303.156 832.09 302.7 831.936C302.215 831.772 299.671 832.658 299.623 832.672C297.138 833.397 294.676 834.15 292.186 834.868C286.501 836.507 280.98 838.214 275.568 840.168C267.126 843.217 258.852 846.406 250.391 849.435C242.842 852.139 236.304 855.725 228.989 858.645C226.22 859.751 223.796 861.129 221.218 862.379C218.17 863.857 214.953 865.118 211.996 866.672C208.889 868.305 205.661 869.93 202.424 871.462C199.993 872.612 197.032 873.641 194.974 875.027C191.585 877.311 186.863 878.773 183.194 880.899C181.418 881.928 179.562 882.827 178.18 884.078C177.828 884.396 176.95 884.84 176.789 885.18C176.392 886.014 177.483 887.194 177.865 887.966C178.705 889.665 179.317 891.391 180.145 893.097C180.79 894.427 180.398 895.785 181.202 897.108" stroke="white" stroke-opacity="0.9" stroke-width="9" stroke-linecap="round"/>
<path d="M302.809 832.708C296.805 837.46 288.132 840.923 281.442 845.321C278.844 847.029 276.233 848.854 274.388 850.884C272.695 852.746 271.319 854.692 269.499 856.518C266.744 859.281 262.653 861.805 260.64 864.797C259.335 866.736 258.477 868.67 257.371 870.629C255.277 874.336 253.855 878.393 253.813 882.263C253.805 883.017 253.549 883.767 253.524 884.526C253.5 885.242 248.339 884.1 247.831 884.02C241.123 882.973 234.236 882.355 227.268 882.09C223.545 881.948 219.788 881.621 216.063 881.556C213.407 881.51 210.672 881.061 208.046 881.131C204.234 881.231 200.425 881.201 196.62 881.308C193.249 881.402 190.341 881.461 187.133 882.072C183.924 882.683 180.979 883.462 177.814 884.139" stroke="white" stroke-opacity="0.9" stroke-width="9" stroke-linecap="round"/>
<path d="M475.564 740.717C468.559 746.885 460.992 752.61 453.148 757.397C449.852 759.408 446.439 761.235 443.241 763.432C441.719 764.477 439.803 765.61 438.537 767.031C438.334 767.259 437.565 767.428 437.827 767.923C439.346 770.803 442.204 773.753 444.261 776.155C446.753 779.065 449.829 781.102 452.62 783.517C456.662 787.014 460.76 790.228 464.948 793.431C469.717 797.077 474.136 801.29 478.681 805.357C482.017 808.342 485.456 811.041 488.74 814.138C494.924 819.969 501.214 825.641 507.216 831.755C509.24 833.816 511.453 835.627 513.419 837.71C515.189 839.587 516.82 841.615 518.554 843.527C519.059 844.083 520.55 846.743 521.126 846.888C521.526 846.989 521.617 847.267 521.934 847.567C522.576 848.176 524.381 847.164 524.914 846.994C528.63 845.808 531.426 843.819 534.139 840.892C539.112 835.527 545.857 832.055 551.79 828.215C556.167 825.382 560.851 823.408 565.33 820.831C567.428 819.625 569.454 818.565 571.694 817.663C573.152 817.076 574.61 816.489 576.068 815.902C576.338 815.794 578.77 815.157 578.805 814.725C578.841 814.266 577.17 812.547 577.142 812.514C575.66 810.78 574.155 809.077 572.679 807.336C569.31 803.362 565.916 799.548 562.288 795.922C556.629 790.265 550.869 784.799 545.225 779.12C540.189 774.052 534.5 770.157 529.3 765.366C527.331 763.552 525.17 762.128 523.101 760.527C520.656 758.635 518.393 756.518 515.893 754.73C513.265 752.851 510.612 750.87 508.055 748.845C506.135 747.324 504.194 745.323 502.127 744.2C498.725 742.35 495.819 739.089 492.506 736.949C490.902 735.913 489.414 734.76 487.686 734.132C487.247 733.972 486.522 733.435 486.114 733.438C485.111 733.447 484.163 734.803 483.449 735.421C481.876 736.779 480.209 737.963 478.625 739.314C477.391 740.368 475.831 740.588 474.649 741.768" stroke="white" stroke-opacity="0.9" stroke-width="9" stroke-linecap="round"/>
<path d="M578.012 815.12C571.231 812.123 565.065 806.443 558.467 802.748C555.904 801.312 553.213 799.913 550.522 799.218C548.052 798.581 545.585 798.234 543.119 797.479C539.385 796.336 535.526 794.01 531.762 793.56C529.321 793.269 527.013 793.34 524.609 793.218C520.058 792.987 515.325 793.442 511.185 794.945C510.378 795.238 509.505 795.328 508.688 795.609C507.917 795.875 507.665 791.222 507.605 790.777C506.81 784.903 505.506 779.054 503.802 773.28C502.891 770.195 502.169 767.008 501.176 763.952C500.468 761.772 500.167 759.369 499.344 757.26C498.15 754.199 497.097 751.088 495.898 748.034C494.836 745.33 493.945 742.987 492.378 740.62C490.811 738.251 489.141 736.164 487.517 733.859" stroke="white" stroke-opacity="0.9" stroke-width="9" stroke-linecap="round"/>
<path d="M468.429 527.637C475.664 520.839 483.515 514.518 491.693 509.214C495.129 506.986 498.698 504.957 502.022 502.528C503.606 501.371 505.605 500.116 506.901 498.554C507.109 498.303 507.922 498.111 507.626 497.574C505.904 494.457 502.755 491.28 500.48 488.689C497.722 485.55 494.374 483.369 491.317 480.774C486.888 477.014 482.409 473.564 477.835 470.126C472.627 466.213 467.771 461.679 462.786 457.305C459.128 454.096 455.369 451.197 451.762 447.865C444.969 441.591 438.069 435.49 431.459 428.905C429.231 426.686 426.809 424.739 424.642 422.495C422.69 420.473 420.881 418.284 418.966 416.224C418.409 415.624 416.725 412.746 416.107 412.595C415.677 412.489 415.57 412.189 415.222 411.865C414.517 411.21 412.632 412.334 412.071 412.525C408.157 413.86 405.252 416.058 402.469 419.276C397.368 425.175 390.312 429.035 384.133 433.285C379.575 436.421 374.661 438.626 369.984 441.483C367.795 442.821 365.676 443.999 363.323 445.007C361.792 445.663 360.261 446.319 358.73 446.976C358.447 447.097 355.881 447.819 355.859 448.29C355.836 448.79 357.677 450.641 357.709 450.677C359.348 452.547 361.012 454.384 362.646 456.261C366.375 460.547 370.126 464.659 374.118 468.564C380.346 474.656 386.675 480.538 392.887 486.654C398.431 492.111 404.627 496.285 410.336 501.438C412.497 503.39 414.849 504.915 417.109 506.633C419.78 508.664 422.265 510.942 424.991 512.859C427.856 514.873 430.752 516.998 433.547 519.173C435.646 520.805 437.784 522.961 440.024 524.159C443.713 526.133 446.923 529.649 450.528 531.94C452.273 533.048 453.898 534.286 455.76 534.949C456.234 535.118 457.025 535.694 457.459 535.686C458.526 535.664 459.486 534.176 460.225 533.496C461.851 531.999 463.582 530.691 465.22 529.2C466.496 528.039 468.149 527.781 469.365 526.483" stroke="white" stroke-opacity="0.9" stroke-width="9" stroke-linecap="round"/>
<path d="M356.688 447.851C364.015 451.033 370.784 457.144 377.941 461.089C380.72 462.621 383.637 464.112 386.526 464.837C389.178 465.502 391.817 465.85 394.47 466.643C398.486 467.843 402.677 470.33 406.701 470.775C409.31 471.063 411.764 470.959 414.328 471.063C419.182 471.26 424.204 470.709 428.557 469.024C429.406 468.696 430.332 468.588 431.192 468.272C432.002 467.974 432.439 473.036 432.519 473.52C433.576 479.905 435.175 486.256 437.196 492.522C438.277 495.87 439.16 499.33 440.327 502.646C441.159 505.01 441.566 507.623 442.517 509.909C443.899 513.228 445.132 516.602 446.518 519.912C447.746 522.844 448.779 525.383 450.532 527.942C452.285 530.502 454.138 532.754 455.95 535.244" stroke="white" stroke-opacity="0.9" stroke-width="9" stroke-linecap="round"/>
<path d="M358.237 379.798C356.667 371.499 355.734 362.862 355.698 354.311C355.682 350.718 355.875 347.086 355.661 343.515C355.559 341.814 355.58 339.738 355.048 338.132C354.962 337.873 355.203 337.14 354.672 337.196C351.588 337.522 347.79 338.997 344.83 339.961C341.243 341.129 338.079 343.114 334.749 344.717C329.925 347.038 325.304 349.508 320.647 352.061C315.345 354.968 309.755 357.37 304.222 359.934C300.161 361.815 296.281 363.887 292.154 365.685C284.384 369.068 276.691 372.601 268.78 375.727C266.113 376.781 263.556 378.088 260.9 379.083C258.507 379.98 256.06 380.7 253.656 381.553C252.957 381.801 250.065 382.179 249.664 382.633C249.386 382.949 249.116 382.931 248.716 383.104C247.907 383.454 247.843 385.391 247.719 385.917C246.858 389.59 247.1 392.737 248.145 396.14C250.059 402.376 249.568 409.504 249.773 416.049C249.924 420.877 249.229 425.674 249.121 430.503C249.071 432.763 248.937 434.911 248.57 437.19C248.331 438.674 248.091 440.158 247.852 441.641C247.808 441.916 247.131 444.271 247.465 444.452C247.82 444.645 250.035 443.781 250.077 443.767C252.212 443.075 254.334 442.35 256.471 441.665C261.352 440.099 266.115 438.457 270.84 436.543C278.211 433.559 285.477 430.419 292.859 427.455C299.446 424.811 305.401 421.185 311.844 418.299C314.283 417.207 316.501 415.81 318.816 414.556C321.553 413.073 324.383 411.829 327.062 410.262C329.877 408.615 332.788 406.98 335.688 405.446C337.865 404.294 340.442 403.292 342.369 401.873C345.541 399.536 349.615 398.128 352.98 395.971C354.608 394.927 356.275 394.025 357.633 392.729C357.978 392.4 358.771 391.952 358.968 391.593C359.453 390.711 358.817 389.406 358.667 388.563C358.336 386.709 358.193 384.834 357.873 382.973C357.624 381.522 358.211 380.077 357.833 378.628" stroke="white" stroke-opacity="0.9" stroke-width="9" stroke-linecap="round"/>
<path d="M247.533 443.62C253.295 438.721 260.934 435.3 267.174 430.806C269.597 429.061 272.055 427.19 273.94 425.073C275.67 423.131 277.162 421.088 278.986 419.19C281.747 416.316 285.53 413.745 287.743 410.602C289.178 408.563 290.253 406.515 291.532 404.449C293.954 400.539 295.908 396.23 296.72 392.075C296.878 391.265 297.234 390.468 297.406 389.653C297.569 388.885 301.471 390.29 301.862 390.392C307.021 391.749 312.41 392.65 317.935 393.174C320.887 393.455 323.829 393.935 326.798 394.133C328.915 394.274 331.015 394.851 333.131 394.866C336.203 394.889 339.246 395.053 342.313 395.07C345.031 395.084 347.371 395.121 350.062 394.576C352.754 394.029 355.268 393.294 357.938 392.676" stroke="white" stroke-opacity="0.9" stroke-width="9" stroke-linecap="round"/>
<path d="M34.3353 706.203C43.068 711.374 50.5512 718.759 59.981 722.923C68.2844 726.59 77.5525 723.557 86.0233 721.96C93.6841 720.515 103.471 716.987 110.031 712.767C115.878 709.006 118.614 708.168 124.563 712.353C134.407 719.278 138.75 734.067 144.708 744.009C146.881 747.634 149.499 751.106 151.514 754.811C152.159 755.996 151.888 757.604 152.538 758.626C155.784 763.723 156.58 764.311 153.57 770.026C151.212 774.505 147.368 777.378 142.648 779.134C123.472 786.268 102.854 787.239 83.5526 778.825C74.4541 774.859 66.1119 768.538 56.7614 765.201C52.1749 763.564 39.991 761.13 37.2574 756.628C34.9661 752.854 35.8839 746.378 34.9939 742.153C33.7624 736.307 30.8919 730.974 29.1317 725.298C27.4235 719.789 27.4055 713.805 26.0314 708.38C25.6815 706.999 23.5011 699.502 25.5735 700.497C28.4043 701.856 31.1505 703.434 33.9307 704.898" stroke="white" stroke-opacity="0.9" stroke-width="9" stroke-linecap="round"/>
<path d="M27.5437 708.213C33.6196 717.063 56.5303 733.65 62.3459 740.848C64.8669 743.154 69.2222 746.225 71.873 748.511C76.9253 752.867 81.6537 755.975 83.9497 758.261C87.4231 761.719 90.4248 755.635 93.2526 751.908C98.7941 744.605 103.537 737.964 107.359 731.315C111.389 724.306 116.416 718.263 120.221 711.038" stroke="white" stroke-opacity="0.9" stroke-width="9" stroke-linecap="round"/>
<path d="M137.067 542.151C147.053 540.337 157.544 541.013 167.396 537.981C176.072 535.312 181.087 526.948 186.44 520.192C191.281 514.081 196.364 505.004 198.555 497.518C200.508 490.846 202.027 488.421 209.263 487.685C221.237 486.467 234.208 494.795 245.222 498.403C249.238 499.718 253.491 500.625 257.441 502.104C258.704 502.577 259.553 503.97 260.714 504.315C266.505 506.041 267.492 505.963 268.962 512.252C270.115 517.181 269.093 521.87 266.678 526.289C256.864 544.242 241.923 558.483 221.829 564.772C212.356 567.736 201.913 568.427 192.662 572.032C188.125 573.8 177.325 579.943 172.311 578.333C168.107 576.983 164.557 571.489 161.117 568.88C156.356 565.27 150.694 563.122 145.645 559.986C140.746 556.943 136.812 552.434 132.22 549.236C131.05 548.422 124.491 544.186 126.709 543.58C129.738 542.753 132.847 542.146 135.906 541.43" stroke="white" stroke-opacity="0.9" stroke-width="9" stroke-linecap="round"/>
<path d="M133.253 548.119C143.641 550.825 171.817 548.346 180.927 549.974C184.342 550.065 189.644 549.531 193.144 549.521C199.815 549.502 205.424 548.753 208.656 548.976C213.546 549.313 211.828 542.75 211.523 538.081C210.924 528.933 210.157 520.809 208.689 513.282C207.141 505.346 206.98 497.487 205.121 489.535" stroke="white" stroke-opacity="0.9" stroke-width="9" stroke-linecap="round"/>
<path d="M261.16 1124.49C270.291 1121.41 280.147 1120.38 289.031 1116.28C296.854 1112.66 300.687 1104.73 304.997 1098.12C308.895 1092.14 312.718 1083.58 314.005 1076.83C315.153 1070.81 316.324 1068.5 323 1066.76C334.047 1063.89 346.989 1069.04 357.629 1070.45C361.508 1070.97 365.567 1071.09 369.401 1071.76C370.627 1071.97 371.56 1073.04 372.678 1073.16C378.255 1073.75 379.168 1073.53 381.175 1078.7C382.749 1082.75 382.27 1086.93 380.464 1091.08C373.125 1107.98 360.627 1122.47 342.518 1130.93C333.981 1134.92 324.309 1137.11 316.044 1141.61C311.99 1143.82 302.537 1150.74 297.696 1150.12C293.638 1149.61 289.771 1145.44 286.298 1143.73C281.492 1141.36 275.993 1140.39 270.966 1138.47C266.088 1136.61 261.962 1133.34 257.355 1131.3C256.181 1130.78 249.634 1128.15 251.642 1127.3C254.384 1126.12 257.222 1125.13 260.004 1124.05" stroke="white" stroke-opacity="0.9" stroke-width="9" stroke-linecap="round"/>
<path d="M258.205 1130.19C268.17 1130.92 294.203 1124.49 302.866 1124.49C306.061 1124.05 310.953 1122.78 314.217 1122.24C320.438 1121.2 325.595 1119.7 328.633 1119.4C333.228 1118.94 330.962 1113.58 330.205 1109.62C328.721 1101.87 327.184 1095.02 325.053 1088.79C322.806 1082.22 321.862 1075.51 319.323 1068.98" stroke="white" stroke-opacity="0.9" stroke-width="9" stroke-linecap="round"/>
<path d="M429.299 987.585C437.871 991.99 445.471 998.348 454.605 1001.86C462.648 1004.96 471.012 1002.18 478.757 1000.66C485.762 999.296 494.566 996.077 500.308 992.297C505.425 988.927 507.899 988.157 513.796 991.737C523.553 997.661 528.868 1010.54 535.268 1019.15C537.602 1022.3 540.338 1025.3 542.532 1028.51C543.233 1029.54 543.12 1030.95 543.813 1031.83C547.272 1036.25 548.064 1036.75 545.755 1041.79C543.945 1045.74 540.616 1048.31 536.374 1049.91C519.143 1056.41 500.039 1057.54 481.353 1050.44C472.544 1047.1 464.237 1041.68 455.248 1038.89C450.839 1037.52 439.291 1035.56 436.359 1031.66C433.902 1028.39 434.199 1022.71 433.007 1019.02C431.357 1013.93 428.227 1009.3 426.1 1004.36C424.037 999.563 423.505 994.329 421.759 989.603C421.315 988.399 418.64 981.87 420.654 982.712C423.406 983.863 426.097 985.206 428.811 986.449" stroke="white" stroke-opacity="0.9" stroke-width="9" stroke-linecap="round"/>
<path d="M423.152 989.435C429.568 997.095 452.317 1011.29 458.349 1017.51C460.893 1019.49 465.211 1022.12 467.874 1024.08C472.951 1027.83 477.619 1030.48 479.952 1032.45C483.482 1035.43 485.752 1030.06 488.063 1026.76C492.591 1020.3 496.433 1014.43 499.418 1008.56C502.565 1002.37 506.723 997.018 509.643 990.645" stroke="white" stroke-opacity="0.9" stroke-width="9" stroke-linecap="round"/>
</svg>
