<svg width="602" height="376" viewBox="0 0 602 376" fill="none" xmlns="http://www.w3.org/2000/svg">
<g filter="url(#filter0_d_530_22)">
<path d="M338.943 88.8458C332.571 95.5902 325.672 102.058 318.501 107.763C315.488 110.159 312.363 112.419 309.444 114.958C308.054 116.167 306.302 117.529 305.156 119.014C304.972 119.253 304.264 119.55 304.514 119.931C305.967 122.143 308.659 124.154 310.601 125.845C312.954 127.894 315.832 129.067 318.452 130.626C322.248 132.883 326.09 134.882 330.016 136.854C334.486 139.099 338.643 141.906 342.913 144.561C346.047 146.509 349.272 148.189 352.36 150.246C358.175 154.117 364.085 157.83 369.737 161.984C371.643 163.384 373.719 164.53 375.571 165.961C377.24 167.249 378.781 168.698 380.417 170.025C380.893 170.411 382.316 172.437 382.851 172.451C383.223 172.461 383.312 172.685 383.61 172.885C384.213 173.29 385.865 172.054 386.355 171.802C389.77 170.042 392.321 167.763 394.781 164.682C399.288 159.035 405.465 154.69 410.886 150.184C414.884 146.86 419.181 144.224 423.279 141.103C425.197 139.642 427.053 138.322 429.109 137.098C430.447 136.302 431.785 135.505 433.123 134.709C433.37 134.561 435.608 133.531 435.633 133.148C435.659 132.74 434.085 131.57 434.058 131.546C432.66 130.325 431.239 129.135 429.846 127.907C426.664 125.103 423.462 122.443 420.047 119.993C414.72 116.17 409.303 112.534 403.99 108.688C399.249 105.257 393.924 102.975 389.036 99.8172C387.186 98.6218 385.164 97.8031 383.224 96.8125C380.932 95.6418 378.804 94.2397 376.463 93.1706C374.002 92.047 371.516 90.8399 369.117 89.5754C367.317 88.6259 365.489 87.2616 363.56 86.6867C360.383 85.74 357.642 83.4666 354.542 82.2494C353.042 81.6604 351.648 80.9469 350.039 80.7374C349.63 80.6841 348.951 80.3574 348.574 80.4403C347.648 80.644 346.794 82.0113 346.144 82.6888C344.712 84.1801 343.192 85.5372 341.75 87.0246C340.627 88.1841 339.188 88.681 338.115 89.94" stroke="white" stroke-width="9" stroke-linecap="round"/>
<path d="M434.907 133.647C428.588 132.362 422.791 128.618 416.629 126.688C414.236 125.938 411.724 125.245 409.225 125.166C406.931 125.093 404.644 125.274 402.352 125.098C398.881 124.832 395.274 123.559 391.787 123.904C389.525 124.127 387.393 124.64 385.168 125.004C380.957 125.693 376.589 127.015 372.787 129.134C372.046 129.547 371.241 129.795 370.49 130.2C369.782 130.582 369.47 126.577 369.407 126.201C368.573 121.238 367.269 116.397 365.597 111.699C364.703 109.189 363.981 106.553 363.012 104.084C362.321 102.323 362.003 100.288 361.206 98.6112C360.051 96.1772 359.025 93.6722 357.865 91.2461C356.838 89.0969 355.974 87.23 354.487 85.4735C352.998 83.7159 351.419 82.2243 349.878 80.533" stroke="white" stroke-width="9" stroke-linecap="round"/>
<path d="M218.636 54.3555C214.481 62.946 209.747 71.4541 204.539 79.3296C202.351 82.6384 200.018 85.8551 197.959 89.2671C196.979 90.8918 195.697 92.7856 195.027 94.5895C194.919 94.8795 194.33 95.4041 194.675 95.6805C196.68 97.2863 199.806 98.2771 202.129 99.2201C204.943 100.363 208.01 100.494 210.94 101.079C215.184 101.926 219.401 102.512 223.689 103.043C228.571 103.648 233.313 104.894 238.121 105.957C241.649 106.737 245.189 107.231 248.704 108.129C255.323 109.82 261.988 111.328 268.532 113.342C270.738 114.022 273.035 114.401 275.199 115.127C277.148 115.781 279.022 116.631 280.951 117.333C281.512 117.537 283.436 118.976 283.949 118.806C284.305 118.688 284.452 118.871 284.792 118.959C285.48 119.137 286.702 117.398 287.096 116.991C289.846 114.15 291.629 111.11 293.097 107.34C295.789 100.431 300.435 94.1882 304.317 88.0507C307.181 83.5232 310.522 79.5476 313.537 75.1794C314.949 73.1343 316.34 71.2446 317.949 69.3783C318.996 68.1635 320.044 66.9486 321.091 65.7338C321.285 65.5092 323.121 63.7642 323.037 63.3916C322.947 62.9951 321.121 62.421 321.088 62.4078C319.415 61.7252 317.729 61.08 316.058 60.3893C312.243 58.8125 308.449 57.3794 304.512 56.2182C298.371 54.4067 292.196 52.8033 286.061 50.9656C280.587 49.3259 274.883 48.9782 269.345 47.6488C267.249 47.1455 265.097 47.0589 262.974 46.7808C260.465 46.4521 258.047 45.8472 255.519 45.6319C252.863 45.4057 250.16 45.1088 247.524 44.7272C245.544 44.4406 243.422 43.7692 241.426 43.8825C238.14 44.0693 234.893 42.8459 231.604 42.7493C230.012 42.7025 228.485 42.5014 226.897 42.8524C226.493 42.9417 225.755 42.8634 225.42 43.0713C224.597 43.5818 224.171 45.1735 223.744 46.0399C222.804 47.9471 221.741 49.7573 220.791 51.6642C220.049 53.1507 218.822 54.1152 218.158 55.6788" stroke="white" stroke-width="9" stroke-linecap="round"/>
<path d="M322.488 64.1143C316.118 65.0542 309.553 63.4783 303.151 63.7515C300.665 63.8576 298.082 64.0581 295.684 64.8377C293.483 65.553 291.36 66.5073 289.131 67.1243C285.757 68.0584 281.97 68.0827 278.752 69.6033C276.665 70.5893 274.783 71.8062 272.771 72.9131C268.963 75.0083 265.183 77.7589 262.167 81.0737C261.579 81.7199 260.884 82.2317 260.284 82.8737C259.719 83.4788 258.293 79.7786 258.127 79.4428C255.935 75.0104 253.33 70.8549 250.416 66.9612C248.858 64.8806 247.429 62.6224 245.812 60.6066C244.659 59.1695 243.781 57.3439 242.552 56.0223C240.767 54.1039 239.085 52.0738 237.299 50.1643C235.717 48.4728 234.369 46.9937 232.46 45.833C230.549 44.6715 228.627 43.7939 226.686 42.7132" stroke="white" stroke-width="9" stroke-linecap="round"/>
<path d="M535.794 268.847C527.088 270.516 518.084 271.63 509.243 271.944C505.528 272.076 501.79 272.025 498.081 272.333C496.315 272.48 494.171 272.53 492.467 273.055C492.193 273.14 491.455 272.95 491.469 273.42C491.551 276.149 492.762 279.474 493.514 282.072C494.425 285.219 496.215 287.965 497.597 290.87C499.598 295.079 501.769 299.103 504.024 303.155C506.59 307.769 508.612 312.656 510.804 317.486C512.414 321.031 514.235 324.41 515.752 328.017C518.608 334.807 521.623 341.525 524.201 348.449C525.07 350.783 526.21 353.012 527.02 355.339C527.749 357.435 528.291 359.585 528.974 361.692C529.173 362.305 529.324 364.862 529.761 365.203C530.064 365.44 530.024 365.68 530.17 366.029C530.464 366.737 532.461 366.73 532.995 366.822C536.72 367.466 539.992 367.147 543.596 366.107C550.199 364.2 557.526 364.401 564.307 364.003C569.31 363.709 574.21 364.169 579.192 364.105C581.525 364.075 583.733 364.123 586.059 364.374C587.573 364.538 589.086 364.701 590.6 364.865C590.88 364.895 593.258 365.418 593.473 365.116C593.702 364.794 592.991 362.855 592.981 362.819C592.441 360.945 591.868 359.084 591.336 357.207C590.121 352.923 588.816 348.746 587.229 344.612C584.753 338.162 582.107 331.812 579.654 325.352C577.465 319.588 574.208 314.417 571.758 308.789C570.83 306.658 569.57 304.734 568.464 302.719C567.158 300.337 566.106 297.864 564.707 295.536C563.237 293.089 561.788 290.557 560.442 288.032C559.431 286.136 558.608 283.879 557.3 282.215C555.147 279.474 554.028 275.901 552.076 272.983C551.131 271.571 550.337 270.121 549.11 268.957C548.798 268.661 548.401 267.972 548.046 267.808C547.174 267.407 545.773 268.015 544.89 268.176C542.946 268.531 540.996 268.72 539.046 269.066C537.526 269.335 536.081 268.861 534.552 269.245" stroke="white" stroke-width="9" stroke-linecap="round"/>
<path d="M592.618 365.083C588.031 360.126 585.126 353.452 580.997 348.058C579.393 345.963 577.662 343.842 575.63 342.237C573.765 340.764 571.777 339.506 569.966 337.948C567.223 335.59 564.879 332.314 561.812 330.453C559.824 329.245 557.795 328.358 555.766 327.289C551.925 325.268 547.632 323.674 543.404 323.09C542.58 322.976 541.786 322.686 540.958 322.56C540.177 322.44 541.952 318.928 542.09 318.577C543.918 313.949 545.294 309.132 546.293 304.207C546.826 301.575 547.565 298.946 548.015 296.302C548.336 294.417 549.105 292.533 549.296 290.652C549.573 287.922 549.994 285.214 550.264 282.488C550.504 280.074 550.735 277.994 550.393 275.622C550.051 273.248 549.499 271.038 549.08 268.688" stroke="white" stroke-width="9" stroke-linecap="round"/>
<path d="M445.569 162.341C437.963 167.297 429.901 171.85 421.733 175.592C418.302 177.164 414.79 178.574 411.42 180.308C409.816 181.134 407.826 182.017 406.402 183.173C406.173 183.359 405.422 183.47 405.586 183.903C406.54 186.424 408.741 189.061 410.279 191.197C412.143 193.786 414.7 195.655 416.926 197.833C420.151 200.989 423.475 203.905 426.886 206.816C430.769 210.13 434.231 213.912 437.834 217.575C440.479 220.263 443.269 222.712 445.847 225.494C450.7 230.731 455.68 235.837 460.317 241.307C461.88 243.152 463.663 244.791 465.168 246.652C466.524 248.327 467.722 250.127 469.038 251.831C469.421 252.327 470.385 254.659 470.903 254.808C471.262 254.911 471.302 255.151 471.551 255.421C472.054 255.968 473.919 255.183 474.448 255.061C478.139 254.21 481.096 252.636 484.132 250.258C489.694 245.9 496.611 243.231 502.826 240.214C507.41 237.988 512.141 236.507 516.779 234.504C518.951 233.567 521.032 232.75 523.287 232.078C524.756 231.641 526.224 231.203 527.692 230.766C527.963 230.685 530.356 230.247 530.46 229.881C530.571 229.491 529.282 227.954 529.261 227.924C528.154 226.382 527.019 224.865 525.918 223.318C523.405 219.785 520.842 216.388 518.028 213.14C513.639 208.074 509.124 203.166 504.752 198.082C500.852 193.545 496.144 189.979 492.043 185.671C490.491 184.04 488.694 182.732 487.012 181.278C485.024 179.56 483.245 177.658 481.189 176.026C479.027 174.311 476.859 172.508 474.788 170.672C473.233 169.293 471.737 167.503 469.979 166.456C467.084 164.733 464.89 161.828 462.126 159.86C460.789 158.908 459.579 157.861 458.058 157.251C457.671 157.096 457.078 156.607 456.693 156.592C455.749 156.556 454.634 157.672 453.86 158.167C452.156 159.257 450.393 160.194 448.68 161.278C447.345 162.122 445.842 162.243 444.536 163.197" stroke="white" stroke-width="9" stroke-linecap="round"/>
<path d="M529.65 230.183C523.766 227.336 518.904 222.228 513.308 218.793C511.135 217.459 508.834 216.15 506.417 215.442C504.2 214.792 501.936 214.39 499.741 213.64C496.419 212.504 493.173 210.355 489.706 209.81C487.459 209.456 485.276 209.417 483.035 209.209C478.793 208.816 474.266 209 470.124 210.102C469.317 210.317 468.481 210.356 467.666 210.56C466.898 210.753 467.428 206.776 467.445 206.394C467.667 201.353 467.405 196.312 466.755 191.316C466.408 188.647 466.254 185.9 465.825 183.251C465.519 181.363 465.632 179.302 465.206 177.468C464.588 174.807 464.111 172.11 463.487 169.456C462.935 167.104 462.483 165.069 461.401 162.984C460.317 160.897 459.091 159.046 457.944 157.011" stroke="white" stroke-width="9" stroke-linecap="round"/>
<path d="M169.591 64.1011C153.232 75.481 130.322 78.9355 111.878 83.6596" stroke="white" stroke-width="3" stroke-linecap="round"/>
<path d="M157.383 54.3218C144.043 57.0552 129.691 56.1691 116.194 56.4949C99.9597 56.8868 83.7196 56.7666 67.4827 56.7666" stroke="white" stroke-width="3" stroke-linecap="round"/>
<path d="M168.481 46.9873C112.944 44.6347 57.6327 40.4591 2 39.6528" stroke="white" stroke-width="3" stroke-linecap="round"/>
</g>
<defs>
<filter id="filter0_d_530_22" x="0.5" y="37.9397" width="601.296" height="337.927" filterUnits="userSpaceOnUse" color-interpolation-filters="sRGB">
<feFlood flood-opacity="0" result="BackgroundImageFix"/>
<feColorMatrix in="SourceAlpha" type="matrix" values="0 0 0 0 0 0 0 0 0 0 0 0 0 0 0 0 0 0 127 0" result="hardAlpha"/>
<feOffset dx="4" dy="4"/>
<feComposite in2="hardAlpha" operator="out"/>
<feColorMatrix type="matrix" values="0 0 0 0 0 0 0 0 0 0 0 0 0 0 0 0 0 0 0.5 0"/>
<feBlend mode="normal" in2="BackgroundImageFix" result="effect1_dropShadow_530_22"/>
<feBlend mode="normal" in="SourceGraphic" in2="effect1_dropShadow_530_22" result="shape"/>
</filter>
</defs>
</svg>
