<svg width="801" height="159" viewBox="0 0 801 159" fill="none" xmlns="http://www.w3.org/2000/svg">
<g filter="url(#filter0_d_503_337)">
<mask id="path-1-outside-1_503_337" maskUnits="userSpaceOnUse" x="7" y="24" width="787" height="128" fill="black">
<rect fill="white" x="7" y="24" width="787" height="128"/>
<path d="M8.09091 124V30.9091H70.8182V47.1364H27.7727V69.3182H67.5909V85.5455H27.7727V107.773H71V124H8.09091ZM77.1423 124V54.1818H95.5968V66.5H96.415C97.8695 62.4091 100.294 59.1818 103.688 56.8182C107.082 54.4545 111.142 53.2727 115.87 53.2727C120.657 53.2727 124.733 54.4697 128.097 56.8636C131.46 59.2273 133.703 62.4394 134.824 66.5H135.551C136.976 62.5 139.551 59.303 143.279 56.9091C147.036 54.4848 151.476 53.2727 156.597 53.2727C163.112 53.2727 168.4 55.3485 172.46 59.5C176.551 63.6212 178.597 69.4697 178.597 77.0455V124H159.279V80.8636C159.279 76.9848 158.248 74.0758 156.188 72.1364C154.127 70.197 151.551 69.2273 148.46 69.2273C144.945 69.2273 142.203 70.3485 140.233 72.5909C138.263 74.803 137.279 77.7273 137.279 81.3636V124H118.506V80.4545C118.506 77.0303 117.521 74.303 115.551 72.2727C113.612 70.2424 111.051 69.2273 107.87 69.2273C105.718 69.2273 103.779 69.7727 102.051 70.8636C100.354 71.9242 99.0059 73.4242 98.0059 75.3636C97.0059 77.2727 96.5059 79.5152 96.5059 82.0909V124H77.1423ZM204.841 125.318C200.387 125.318 196.417 124.545 192.932 123C189.447 121.424 186.69 119.106 184.66 116.045C182.66 112.955 181.66 109.106 181.66 104.5C181.66 100.621 182.372 97.3636 183.796 94.7273C185.22 92.0909 187.16 89.9697 189.614 88.3636C192.069 86.7576 194.857 85.5455 197.978 84.7273C201.129 83.9091 204.432 83.3333 207.887 83C211.947 82.5758 215.22 82.1818 217.705 81.8182C220.19 81.4242 221.993 80.8485 223.114 80.0909C224.235 79.3333 224.796 78.2121 224.796 76.7273V76.4545C224.796 73.5758 223.887 71.3485 222.069 69.7727C220.281 68.197 217.735 67.4091 214.432 67.4091C210.947 67.4091 208.175 68.1818 206.114 69.7273C204.053 71.2424 202.69 73.1515 202.023 75.4545L184.114 74C185.023 69.7576 186.811 66.0909 189.478 63C192.144 59.8788 195.584 57.4848 199.796 55.8182C204.038 54.1212 208.947 53.2727 214.523 53.2727C218.402 53.2727 222.114 53.7273 225.66 54.6364C229.235 55.5455 232.402 56.9545 235.16 58.8636C237.947 60.7727 240.144 63.2273 241.75 66.2273C243.357 69.197 244.16 72.7576 244.16 76.9091V124H225.796V114.318H225.25C224.129 116.5 222.629 118.424 220.75 120.091C218.872 121.727 216.614 123.015 213.978 123.955C211.341 124.864 208.296 125.318 204.841 125.318ZM210.387 111.955C213.235 111.955 215.75 111.394 217.932 110.273C220.114 109.121 221.826 107.576 223.069 105.636C224.311 103.697 224.932 101.5 224.932 99.0455V91.6364C224.326 92.0303 223.493 92.3939 222.432 92.7273C221.402 93.0303 220.235 93.3182 218.932 93.5909C217.629 93.8333 216.326 94.0606 215.023 94.2727C213.72 94.4545 212.538 94.6212 211.478 94.7727C209.205 95.1061 207.22 95.6364 205.523 96.3636C203.826 97.0909 202.508 98.0758 201.569 99.3182C200.629 100.53 200.16 102.045 200.16 103.864C200.16 106.5 201.114 108.515 203.023 109.909C204.963 111.273 207.417 111.955 210.387 111.955ZM250.222 124V54.1818H269.586V124H250.222ZM259.95 45.1818C257.071 45.1818 254.601 44.2273 252.54 42.3182C250.51 40.3788 249.495 38.0606 249.495 35.3636C249.495 32.697 250.51 30.4091 252.54 28.5C254.601 26.5606 257.071 25.5909 259.95 25.5909C262.828 25.5909 265.283 26.5606 267.313 28.5C269.374 30.4091 270.404 32.697 270.404 35.3636C270.404 38.0606 269.374 40.3788 267.313 42.3182C265.283 44.2273 262.828 45.1818 259.95 45.1818ZM295.501 30.9091V124H276.137V30.9091H295.501ZM373.581 57.6818C373.217 54.0151 371.657 51.1667 368.899 49.1364C366.142 47.1061 362.399 46.0909 357.672 46.0909C354.46 46.0909 351.748 46.5455 349.535 47.4545C347.323 48.3333 345.626 49.5606 344.445 51.1364C343.293 52.7121 342.717 54.5 342.717 56.5C342.657 58.1667 343.005 59.6212 343.763 60.8636C344.551 62.1061 345.626 63.1818 346.99 64.0909C348.354 64.9697 349.929 65.7424 351.717 66.4091C353.505 67.0455 355.414 67.5909 357.445 68.0455L365.808 70.0455C369.869 70.9545 373.596 72.1667 376.99 73.6818C380.384 75.197 383.323 77.0606 385.808 79.2727C388.293 81.4848 390.217 84.0909 391.581 87.0909C392.975 90.0909 393.687 93.5303 393.717 97.4091C393.687 103.106 392.232 108.045 389.354 112.227C386.505 116.379 382.384 119.606 376.99 121.909C371.626 124.182 365.157 125.318 357.581 125.318C350.066 125.318 343.52 124.167 337.945 121.864C332.399 119.561 328.066 116.152 324.945 111.636C321.854 107.091 320.232 101.47 320.081 94.7727H339.126C339.338 97.8939 340.232 100.5 341.808 102.591C343.414 104.652 345.551 106.212 348.217 107.273C350.914 108.303 353.96 108.818 357.354 108.818C360.687 108.818 363.581 108.333 366.035 107.364C368.52 106.394 370.445 105.045 371.808 103.318C373.172 101.591 373.854 99.6061 373.854 97.3636C373.854 95.2727 373.232 93.5152 371.99 92.0909C370.778 90.6667 368.99 89.4545 366.626 88.4545C364.293 87.4545 361.429 86.5455 358.035 85.7273L347.899 83.1818C340.051 81.2727 333.854 78.2879 329.308 74.2273C324.763 70.1667 322.505 64.697 322.535 57.8182C322.505 52.1818 324.005 47.2576 327.035 43.0455C330.096 38.8333 334.293 35.5455 339.626 33.1818C344.96 30.8182 351.02 29.6364 357.808 29.6364C364.717 29.6364 370.748 30.8182 375.899 33.1818C381.081 35.5455 385.111 38.8333 387.99 43.0455C390.869 47.2576 392.354 52.1364 392.445 57.6818H373.581ZM397.632 124V54.1818H416.996V124H397.632ZM407.36 45.1818C404.481 45.1818 402.011 44.2273 399.95 42.3182C397.92 40.3788 396.905 38.0606 396.905 35.3636C396.905 32.697 397.92 30.4091 399.95 28.5C402.011 26.5606 404.481 25.5909 407.36 25.5909C410.238 25.5909 412.693 26.5606 414.723 28.5C416.784 30.4091 417.814 32.697 417.814 35.3636C417.814 38.0606 416.784 40.3788 414.723 42.3182C412.693 44.2273 410.238 45.1818 407.36 45.1818ZM423.547 124V54.1818H442.002V66.5H442.82C444.275 62.4091 446.699 59.1818 450.093 56.8182C453.487 54.4545 457.547 53.2727 462.275 53.2727C467.062 53.2727 471.138 54.4697 474.502 56.8636C477.865 59.2273 480.108 62.4394 481.229 66.5H481.956C483.381 62.5 485.956 59.303 489.684 56.9091C493.441 54.4848 497.881 53.2727 503.002 53.2727C509.517 53.2727 514.805 55.3485 518.865 59.5C522.956 63.6212 525.002 69.4697 525.002 77.0455V124H505.684V80.8636C505.684 76.9848 504.653 74.0758 502.593 72.1364C500.532 70.197 497.956 69.2273 494.865 69.2273C491.35 69.2273 488.608 70.3485 486.638 72.5909C484.668 74.803 483.684 77.7273 483.684 81.3636V124H464.911V80.4545C464.911 77.0303 463.926 74.303 461.956 72.2727C460.017 70.2424 457.456 69.2273 454.275 69.2273C452.123 69.2273 450.184 69.7727 448.456 70.8636C446.759 71.9242 445.411 73.4242 444.411 75.3636C443.411 77.2727 442.911 79.5152 442.911 82.0909V124H423.547ZM531.337 150.182V54.1818H550.428V65.9091H551.292C552.14 64.0303 553.368 62.1212 554.974 60.1818C556.61 58.2121 558.731 56.5758 561.337 55.2727C563.974 53.9394 567.246 53.2727 571.155 53.2727C576.246 53.2727 580.943 54.6061 585.246 57.2727C589.549 59.9091 592.989 63.8939 595.565 69.2273C598.14 74.5303 599.428 81.1818 599.428 89.1818C599.428 96.9697 598.171 103.545 595.655 108.909C593.171 114.242 589.777 118.288 585.474 121.045C581.201 123.773 576.413 125.136 571.11 125.136C567.352 125.136 564.155 124.515 561.519 123.273C558.913 122.03 556.777 120.47 555.11 118.591C553.443 116.682 552.171 114.758 551.292 112.818H550.701V150.182H531.337ZM550.292 89.0909C550.292 93.2424 550.868 96.8636 552.019 99.9545C553.171 103.045 554.837 105.455 557.019 107.182C559.201 108.879 561.852 109.727 564.974 109.727C568.125 109.727 570.792 108.864 572.974 107.136C575.155 105.379 576.807 102.955 577.928 99.8636C579.08 96.7424 579.655 93.1515 579.655 89.0909C579.655 85.0606 579.095 81.5151 577.974 78.4545C576.852 75.3939 575.201 73 573.019 71.2727C570.837 69.5455 568.155 68.6818 564.974 68.6818C561.822 68.6818 559.155 69.5151 556.974 71.1818C554.822 72.8485 553.171 75.2121 552.019 78.2727C550.868 81.3333 550.292 84.9394 550.292 89.0909ZM622.741 30.9091V124H603.377V30.9091H622.741ZM790.708 74.0909L772.981 75.1818C772.678 73.6667 772.026 72.303 771.026 71.0909C770.026 69.8485 768.708 68.8636 767.072 68.1364C765.466 67.3788 763.542 67 761.299 67C758.299 67 755.769 67.6364 753.708 68.9091C751.648 70.1515 750.617 71.8182 750.617 73.9091C750.617 75.5758 751.284 76.9848 752.617 78.1364C753.951 79.2879 756.239 80.2121 759.481 80.9091L772.117 83.4545C778.905 84.8485 783.966 87.0909 787.299 90.1818C790.632 93.2727 792.299 97.3333 792.299 102.364C792.299 106.939 790.951 110.955 788.254 114.409C785.587 117.864 781.92 120.561 777.254 122.5C772.617 124.409 767.269 125.364 761.208 125.364C751.966 125.364 744.602 123.439 739.117 119.591C733.663 115.712 730.466 110.439 729.526 103.773L748.572 102.773C749.148 105.591 750.542 107.742 752.754 109.227C754.966 110.682 757.799 111.409 761.254 111.409C764.648 111.409 767.375 110.758 769.435 109.455C771.526 108.121 772.587 106.409 772.617 104.318C772.587 102.561 771.845 101.121 770.39 100C768.935 98.8485 766.693 97.9697 763.663 97.3636L751.572 94.9545C744.754 93.5909 739.678 91.2273 736.345 87.8636C733.042 84.5 731.39 80.2121 731.39 75C731.39 70.5151 732.602 66.6515 735.026 63.4091C737.481 60.1667 740.92 57.6667 745.345 55.9091C749.799 54.1515 755.011 53.2727 760.981 53.2727C769.799 53.2727 776.739 55.1364 781.799 58.8636C786.89 62.5909 789.86 67.6667 790.708 74.0909Z"/>
</mask>
<path d="M8.09091 124V30.9091H70.8182V47.1364H27.7727V69.3182H67.5909V85.5455H27.7727V107.773H71V124H8.09091ZM77.1423 124V54.1818H95.5968V66.5H96.415C97.8695 62.4091 100.294 59.1818 103.688 56.8182C107.082 54.4545 111.142 53.2727 115.87 53.2727C120.657 53.2727 124.733 54.4697 128.097 56.8636C131.46 59.2273 133.703 62.4394 134.824 66.5H135.551C136.976 62.5 139.551 59.303 143.279 56.9091C147.036 54.4848 151.476 53.2727 156.597 53.2727C163.112 53.2727 168.4 55.3485 172.46 59.5C176.551 63.6212 178.597 69.4697 178.597 77.0455V124H159.279V80.8636C159.279 76.9848 158.248 74.0758 156.188 72.1364C154.127 70.197 151.551 69.2273 148.46 69.2273C144.945 69.2273 142.203 70.3485 140.233 72.5909C138.263 74.803 137.279 77.7273 137.279 81.3636V124H118.506V80.4545C118.506 77.0303 117.521 74.303 115.551 72.2727C113.612 70.2424 111.051 69.2273 107.87 69.2273C105.718 69.2273 103.779 69.7727 102.051 70.8636C100.354 71.9242 99.0059 73.4242 98.0059 75.3636C97.0059 77.2727 96.5059 79.5152 96.5059 82.0909V124H77.1423ZM204.841 125.318C200.387 125.318 196.417 124.545 192.932 123C189.447 121.424 186.69 119.106 184.66 116.045C182.66 112.955 181.66 109.106 181.66 104.5C181.66 100.621 182.372 97.3636 183.796 94.7273C185.22 92.0909 187.16 89.9697 189.614 88.3636C192.069 86.7576 194.857 85.5455 197.978 84.7273C201.129 83.9091 204.432 83.3333 207.887 83C211.947 82.5758 215.22 82.1818 217.705 81.8182C220.19 81.4242 221.993 80.8485 223.114 80.0909C224.235 79.3333 224.796 78.2121 224.796 76.7273V76.4545C224.796 73.5758 223.887 71.3485 222.069 69.7727C220.281 68.197 217.735 67.4091 214.432 67.4091C210.947 67.4091 208.175 68.1818 206.114 69.7273C204.053 71.2424 202.69 73.1515 202.023 75.4545L184.114 74C185.023 69.7576 186.811 66.0909 189.478 63C192.144 59.8788 195.584 57.4848 199.796 55.8182C204.038 54.1212 208.947 53.2727 214.523 53.2727C218.402 53.2727 222.114 53.7273 225.66 54.6364C229.235 55.5455 232.402 56.9545 235.16 58.8636C237.947 60.7727 240.144 63.2273 241.75 66.2273C243.357 69.197 244.16 72.7576 244.16 76.9091V124H225.796V114.318H225.25C224.129 116.5 222.629 118.424 220.75 120.091C218.872 121.727 216.614 123.015 213.978 123.955C211.341 124.864 208.296 125.318 204.841 125.318ZM210.387 111.955C213.235 111.955 215.75 111.394 217.932 110.273C220.114 109.121 221.826 107.576 223.069 105.636C224.311 103.697 224.932 101.5 224.932 99.0455V91.6364C224.326 92.0303 223.493 92.3939 222.432 92.7273C221.402 93.0303 220.235 93.3182 218.932 93.5909C217.629 93.8333 216.326 94.0606 215.023 94.2727C213.72 94.4545 212.538 94.6212 211.478 94.7727C209.205 95.1061 207.22 95.6364 205.523 96.3636C203.826 97.0909 202.508 98.0758 201.569 99.3182C200.629 100.53 200.16 102.045 200.16 103.864C200.16 106.5 201.114 108.515 203.023 109.909C204.963 111.273 207.417 111.955 210.387 111.955ZM250.222 124V54.1818H269.586V124H250.222ZM259.95 45.1818C257.071 45.1818 254.601 44.2273 252.54 42.3182C250.51 40.3788 249.495 38.0606 249.495 35.3636C249.495 32.697 250.51 30.4091 252.54 28.5C254.601 26.5606 257.071 25.5909 259.95 25.5909C262.828 25.5909 265.283 26.5606 267.313 28.5C269.374 30.4091 270.404 32.697 270.404 35.3636C270.404 38.0606 269.374 40.3788 267.313 42.3182C265.283 44.2273 262.828 45.1818 259.95 45.1818ZM295.501 30.9091V124H276.137V30.9091H295.501ZM373.581 57.6818C373.217 54.0151 371.657 51.1667 368.899 49.1364C366.142 47.1061 362.399 46.0909 357.672 46.0909C354.46 46.0909 351.748 46.5455 349.535 47.4545C347.323 48.3333 345.626 49.5606 344.445 51.1364C343.293 52.7121 342.717 54.5 342.717 56.5C342.657 58.1667 343.005 59.6212 343.763 60.8636C344.551 62.1061 345.626 63.1818 346.99 64.0909C348.354 64.9697 349.929 65.7424 351.717 66.4091C353.505 67.0455 355.414 67.5909 357.445 68.0455L365.808 70.0455C369.869 70.9545 373.596 72.1667 376.99 73.6818C380.384 75.197 383.323 77.0606 385.808 79.2727C388.293 81.4848 390.217 84.0909 391.581 87.0909C392.975 90.0909 393.687 93.5303 393.717 97.4091C393.687 103.106 392.232 108.045 389.354 112.227C386.505 116.379 382.384 119.606 376.99 121.909C371.626 124.182 365.157 125.318 357.581 125.318C350.066 125.318 343.52 124.167 337.945 121.864C332.399 119.561 328.066 116.152 324.945 111.636C321.854 107.091 320.232 101.47 320.081 94.7727H339.126C339.338 97.8939 340.232 100.5 341.808 102.591C343.414 104.652 345.551 106.212 348.217 107.273C350.914 108.303 353.96 108.818 357.354 108.818C360.687 108.818 363.581 108.333 366.035 107.364C368.52 106.394 370.445 105.045 371.808 103.318C373.172 101.591 373.854 99.6061 373.854 97.3636C373.854 95.2727 373.232 93.5152 371.99 92.0909C370.778 90.6667 368.99 89.4545 366.626 88.4545C364.293 87.4545 361.429 86.5455 358.035 85.7273L347.899 83.1818C340.051 81.2727 333.854 78.2879 329.308 74.2273C324.763 70.1667 322.505 64.697 322.535 57.8182C322.505 52.1818 324.005 47.2576 327.035 43.0455C330.096 38.8333 334.293 35.5455 339.626 33.1818C344.96 30.8182 351.02 29.6364 357.808 29.6364C364.717 29.6364 370.748 30.8182 375.899 33.1818C381.081 35.5455 385.111 38.8333 387.99 43.0455C390.869 47.2576 392.354 52.1364 392.445 57.6818H373.581ZM397.632 124V54.1818H416.996V124H397.632ZM407.36 45.1818C404.481 45.1818 402.011 44.2273 399.95 42.3182C397.92 40.3788 396.905 38.0606 396.905 35.3636C396.905 32.697 397.92 30.4091 399.95 28.5C402.011 26.5606 404.481 25.5909 407.36 25.5909C410.238 25.5909 412.693 26.5606 414.723 28.5C416.784 30.4091 417.814 32.697 417.814 35.3636C417.814 38.0606 416.784 40.3788 414.723 42.3182C412.693 44.2273 410.238 45.1818 407.36 45.1818ZM423.547 124V54.1818H442.002V66.5H442.82C444.275 62.4091 446.699 59.1818 450.093 56.8182C453.487 54.4545 457.547 53.2727 462.275 53.2727C467.062 53.2727 471.138 54.4697 474.502 56.8636C477.865 59.2273 480.108 62.4394 481.229 66.5H481.956C483.381 62.5 485.956 59.303 489.684 56.9091C493.441 54.4848 497.881 53.2727 503.002 53.2727C509.517 53.2727 514.805 55.3485 518.865 59.5C522.956 63.6212 525.002 69.4697 525.002 77.0455V124H505.684V80.8636C505.684 76.9848 504.653 74.0758 502.593 72.1364C500.532 70.197 497.956 69.2273 494.865 69.2273C491.35 69.2273 488.608 70.3485 486.638 72.5909C484.668 74.803 483.684 77.7273 483.684 81.3636V124H464.911V80.4545C464.911 77.0303 463.926 74.303 461.956 72.2727C460.017 70.2424 457.456 69.2273 454.275 69.2273C452.123 69.2273 450.184 69.7727 448.456 70.8636C446.759 71.9242 445.411 73.4242 444.411 75.3636C443.411 77.2727 442.911 79.5152 442.911 82.0909V124H423.547ZM531.337 150.182V54.1818H550.428V65.9091H551.292C552.14 64.0303 553.368 62.1212 554.974 60.1818C556.61 58.2121 558.731 56.5758 561.337 55.2727C563.974 53.9394 567.246 53.2727 571.155 53.2727C576.246 53.2727 580.943 54.6061 585.246 57.2727C589.549 59.9091 592.989 63.8939 595.565 69.2273C598.14 74.5303 599.428 81.1818 599.428 89.1818C599.428 96.9697 598.171 103.545 595.655 108.909C593.171 114.242 589.777 118.288 585.474 121.045C581.201 123.773 576.413 125.136 571.11 125.136C567.352 125.136 564.155 124.515 561.519 123.273C558.913 122.03 556.777 120.47 555.11 118.591C553.443 116.682 552.171 114.758 551.292 112.818H550.701V150.182H531.337ZM550.292 89.0909C550.292 93.2424 550.868 96.8636 552.019 99.9545C553.171 103.045 554.837 105.455 557.019 107.182C559.201 108.879 561.852 109.727 564.974 109.727C568.125 109.727 570.792 108.864 572.974 107.136C575.155 105.379 576.807 102.955 577.928 99.8636C579.08 96.7424 579.655 93.1515 579.655 89.0909C579.655 85.0606 579.095 81.5151 577.974 78.4545C576.852 75.3939 575.201 73 573.019 71.2727C570.837 69.5455 568.155 68.6818 564.974 68.6818C561.822 68.6818 559.155 69.5151 556.974 71.1818C554.822 72.8485 553.171 75.2121 552.019 78.2727C550.868 81.3333 550.292 84.9394 550.292 89.0909ZM622.741 30.9091V124H603.377V30.9091H622.741ZM790.708 74.0909L772.981 75.1818C772.678 73.6667 772.026 72.303 771.026 71.0909C770.026 69.8485 768.708 68.8636 767.072 68.1364C765.466 67.3788 763.542 67 761.299 67C758.299 67 755.769 67.6364 753.708 68.9091C751.648 70.1515 750.617 71.8182 750.617 73.9091C750.617 75.5758 751.284 76.9848 752.617 78.1364C753.951 79.2879 756.239 80.2121 759.481 80.9091L772.117 83.4545C778.905 84.8485 783.966 87.0909 787.299 90.1818C790.632 93.2727 792.299 97.3333 792.299 102.364C792.299 106.939 790.951 110.955 788.254 114.409C785.587 117.864 781.92 120.561 777.254 122.5C772.617 124.409 767.269 125.364 761.208 125.364C751.966 125.364 744.602 123.439 739.117 119.591C733.663 115.712 730.466 110.439 729.526 103.773L748.572 102.773C749.148 105.591 750.542 107.742 752.754 109.227C754.966 110.682 757.799 111.409 761.254 111.409C764.648 111.409 767.375 110.758 769.435 109.455C771.526 108.121 772.587 106.409 772.617 104.318C772.587 102.561 771.845 101.121 770.39 100C768.935 98.8485 766.693 97.9697 763.663 97.3636L751.572 94.9545C744.754 93.5909 739.678 91.2273 736.345 87.8636C733.042 84.5 731.39 80.2121 731.39 75C731.39 70.5151 732.602 66.6515 735.026 63.4091C737.481 60.1667 740.92 57.6667 745.345 55.9091C749.799 54.1515 755.011 53.2727 760.981 53.2727C769.799 53.2727 776.739 55.1364 781.799 58.8636C786.89 62.5909 789.86 67.6667 790.708 74.0909Z" fill="white"/>
<path d="M8.09091 124H7.09091V125H8.09091V124ZM8.09091 30.9091V29.9091H7.09091V30.9091H8.09091ZM70.8182 30.9091H71.8182V29.9091H70.8182V30.9091ZM70.8182 47.1364V48.1364H71.8182V47.1364H70.8182ZM27.7727 47.1364V46.1364H26.7727V47.1364H27.7727ZM27.7727 69.3182H26.7727V70.3182H27.7727V69.3182ZM67.5909 69.3182H68.5909V68.3182H67.5909V69.3182ZM67.5909 85.5455V86.5455H68.5909V85.5455H67.5909ZM27.7727 85.5455V84.5455H26.7727V85.5455H27.7727ZM27.7727 107.773H26.7727V108.773H27.7727V107.773ZM71 107.773H72V106.773H71V107.773ZM71 124V125H72V124H71ZM9.09091 124V30.9091H7.09091V124H9.09091ZM8.09091 31.9091H70.8182V29.9091H8.09091V31.9091ZM69.8182 30.9091V47.1364H71.8182V30.9091H69.8182ZM70.8182 46.1364H27.7727V48.1364H70.8182V46.1364ZM26.7727 47.1364V69.3182H28.7727V47.1364H26.7727ZM27.7727 70.3182H67.5909V68.3182H27.7727V70.3182ZM66.5909 69.3182V85.5455H68.5909V69.3182H66.5909ZM67.5909 84.5455H27.7727V86.5455H67.5909V84.5455ZM26.7727 85.5455V107.773H28.7727V85.5455H26.7727ZM27.7727 108.773H71V106.773H27.7727V108.773ZM70 107.773V124H72V107.773H70ZM71 123H8.09091V125H71V123ZM77.1423 124H76.1423V125H77.1423V124ZM77.1423 54.1818V53.1818H76.1423V54.1818H77.1423ZM95.5968 54.1818H96.5968V53.1818H95.5968V54.1818ZM95.5968 66.5H94.5968V67.5H95.5968V66.5ZM96.415 66.5V67.5H97.1208L97.3572 66.835L96.415 66.5ZM103.688 56.8182L103.116 55.9976L103.688 56.8182ZM128.097 56.8636L127.517 57.6784L127.522 57.6818L128.097 56.8636ZM134.824 66.5L133.86 66.7662L134.063 67.5H134.824V66.5ZM135.551 66.5V67.5H136.257L136.493 66.8354L135.551 66.5ZM143.279 56.9091L143.819 57.7505L143.821 57.7494L143.279 56.9091ZM172.46 59.5L171.746 60.1993L171.751 60.2045L172.46 59.5ZM178.597 124V125H179.597V124H178.597ZM159.279 124H158.279V125H159.279V124ZM156.188 72.1364L155.502 72.8646L156.188 72.1364ZM140.233 72.5909L140.98 73.2559L140.984 73.2508L140.233 72.5909ZM137.279 124V125H138.279V124H137.279ZM118.506 124H117.506V125H118.506V124ZM115.551 72.2727L114.828 72.9635L114.834 72.969L115.551 72.2727ZM102.051 70.8636L102.581 71.7116L102.585 71.7091L102.051 70.8636ZM98.0059 75.3636L98.8918 75.8277L98.8947 75.8219L98.0059 75.3636ZM96.5059 124V125H97.5059V124H96.5059ZM78.1423 124V54.1818H76.1423V124H78.1423ZM77.1423 55.1818H95.5968V53.1818H77.1423V55.1818ZM94.5968 54.1818V66.5H96.5968V54.1818H94.5968ZM95.5968 67.5H96.415V65.5H95.5968V67.5ZM97.3572 66.835C98.7456 62.9303 101.045 59.877 104.259 57.6388L103.116 55.9976C99.5423 58.4866 96.9935 61.8879 95.4728 66.165L97.3572 66.835ZM104.259 57.6388C107.462 55.4081 111.316 54.2727 115.87 54.2727V52.2727C110.968 52.2727 106.701 53.501 103.116 55.9976L104.259 57.6388ZM115.87 54.2727C120.484 54.2727 124.349 55.4234 127.517 57.6784L128.677 56.0489C125.118 53.516 120.831 52.2727 115.87 52.2727V54.2727ZM127.522 57.6818C130.691 59.9086 132.799 62.9231 133.86 66.7662L135.788 66.2338C134.607 61.9557 132.23 58.546 128.672 56.0454L127.522 57.6818ZM134.824 67.5H135.551V65.5H134.824V67.5ZM136.493 66.8354C137.84 63.0534 140.269 60.0304 143.819 57.7505L142.738 56.0677C138.833 58.5756 136.111 61.9466 134.609 66.1646L136.493 66.8354ZM143.821 57.7494C147.394 55.4439 151.639 54.2727 156.597 54.2727V52.2727C151.312 52.2727 146.678 53.5258 142.737 56.0688L143.821 57.7494ZM156.597 54.2727C162.879 54.2727 167.897 56.2643 171.746 60.1992L173.175 58.8008C168.903 54.4326 163.345 52.2727 156.597 52.2727V54.2727ZM171.751 60.2045C175.604 64.0864 177.597 69.65 177.597 77.0455H179.597C179.597 69.2894 177.499 63.156 173.17 58.7955L171.751 60.2045ZM177.597 77.0455V124H179.597V77.0455H177.597ZM178.597 123H159.279V125H178.597V123ZM160.279 124V80.8636H158.279V124H160.279ZM160.279 80.8636C160.279 76.8147 159.2 73.5984 156.873 71.4082L155.502 72.8646C157.296 74.5531 158.279 77.155 158.279 80.8636H160.279ZM156.873 71.4082C154.609 69.2774 151.78 68.2273 148.46 68.2273V70.2273C151.322 70.2273 153.645 71.1166 155.502 72.8646L156.873 71.4082ZM148.46 68.2273C144.714 68.2273 141.676 69.4335 139.482 71.931L140.984 73.2508C142.73 71.2635 145.177 70.2273 148.46 70.2273V68.2273ZM139.486 71.9259C137.319 74.3605 136.279 77.5404 136.279 81.3636H138.279C138.279 77.9142 139.208 75.2456 140.98 73.2559L139.486 71.9259ZM136.279 81.3636V124H138.279V81.3636H136.279ZM137.279 123H118.506V125H137.279V123ZM119.506 124V80.4545H117.506V124H119.506ZM119.506 80.4545C119.506 76.8285 118.457 73.8312 116.269 71.5764L114.834 72.969C116.586 74.7748 117.506 77.2321 117.506 80.4545H119.506ZM116.274 71.582C114.12 69.327 111.285 68.2273 107.87 68.2273V70.2273C110.818 70.2273 113.103 71.1578 114.828 72.9635L116.274 71.582ZM107.87 68.2273C105.54 68.2273 103.413 68.8208 101.517 70.0182L102.585 71.7091C104.144 70.7246 105.897 70.2273 107.87 70.2273V68.2273ZM101.521 70.0156C99.6583 71.18 98.1918 72.8211 97.1171 74.9053L98.8947 75.8219C99.82 74.0274 101.05 72.6684 102.581 71.7116L101.521 70.0156ZM97.1201 74.8996C96.0318 76.9773 95.5059 79.3849 95.5059 82.0909H97.5059C97.5059 79.6454 97.98 77.5681 98.8917 75.8276L97.1201 74.8996ZM95.5059 82.0909V124H97.5059V82.0909H95.5059ZM96.5059 123H77.1423V125H96.5059V123ZM192.932 123L192.52 123.911L192.527 123.914L192.932 123ZM184.66 116.045L183.82 116.589L183.826 116.598L184.66 116.045ZM183.796 94.7273L182.916 94.252L183.796 94.7273ZM189.614 88.3636L189.067 87.5268L189.614 88.3636ZM197.978 84.7273L197.726 83.7594L197.724 83.76L197.978 84.7273ZM207.887 83L207.983 83.9954L207.991 83.9946L207.887 83ZM217.705 81.8182L217.85 82.8077L217.862 82.8058L217.705 81.8182ZM223.114 80.0909L222.554 79.2623L223.114 80.0909ZM222.069 69.7727L221.407 70.523L221.414 70.5284L222.069 69.7727ZM206.114 69.7273L206.707 70.533L206.714 70.5273L206.114 69.7273ZM202.023 75.4545L201.942 76.4513L202.757 76.5174L202.984 75.7326L202.023 75.4545ZM184.114 74L183.136 73.7905L182.898 74.9045L184.033 74.9967L184.114 74ZM189.478 63L190.235 63.6532L190.238 63.6496L189.478 63ZM199.796 55.8182L200.164 56.748L200.167 56.7467L199.796 55.8182ZM225.66 54.6364L225.411 55.605L225.413 55.6055L225.66 54.6364ZM235.16 58.8636L234.59 59.6858L234.595 59.6887L235.16 58.8636ZM241.75 66.2273L240.869 66.6992L240.871 66.703L241.75 66.2273ZM244.16 124V125H245.16V124H244.16ZM225.796 124H224.796V125H225.796V124ZM225.796 114.318H226.796V113.318H225.796V114.318ZM225.25 114.318V113.318H224.64L224.361 113.861L225.25 114.318ZM220.75 120.091L221.407 120.845L221.414 120.839L220.75 120.091ZM213.978 123.955L214.304 124.9L214.313 124.897L213.978 123.955ZM217.932 110.273L218.389 111.162L218.399 111.157L217.932 110.273ZM223.069 105.636L222.227 105.097L223.069 105.636ZM224.932 91.6364H225.932V89.7937L224.387 90.7979L224.932 91.6364ZM222.432 92.7273L222.714 93.6866L222.723 93.684L222.732 93.6813L222.432 92.7273ZM218.932 93.5909L219.115 94.574L219.126 94.572L219.137 94.5697L218.932 93.5909ZM215.023 94.2727L215.161 95.2631L215.173 95.2616L215.184 95.2597L215.023 94.2727ZM211.478 94.7727L211.336 93.7828L211.333 93.7833L211.478 94.7727ZM205.523 96.3636L205.917 97.2828L205.523 96.3636ZM201.569 99.3182L202.359 99.9308L202.366 99.9213L201.569 99.3182ZM203.023 109.909L202.433 110.717L202.441 110.722L202.448 110.727L203.023 109.909ZM204.841 124.318C200.503 124.318 196.675 123.566 193.338 122.086L192.527 123.914C196.159 125.525 200.27 126.318 204.841 126.318V124.318ZM193.344 122.089C190.023 120.587 187.415 118.39 185.493 115.493L183.826 116.598C185.965 119.822 188.872 122.261 192.52 123.911L193.344 122.089ZM185.499 115.502C183.627 112.609 182.66 108.962 182.66 104.5H180.66C180.66 109.25 181.692 113.3 183.82 116.589L185.499 115.502ZM182.66 104.5C182.66 100.74 183.35 97.6562 184.676 95.2026L182.916 94.252C181.393 97.0711 180.66 100.503 180.66 104.5H182.66ZM184.676 95.2026C186.023 92.7092 187.849 90.7135 190.162 89.2004L189.067 87.5268C186.47 89.2259 184.418 91.4726 182.916 94.252L184.676 95.2026ZM190.162 89.2004C192.517 87.659 195.204 86.4881 198.231 85.6946L197.724 83.76C194.509 84.6028 191.62 85.8561 189.067 87.5268L190.162 89.2004ZM198.229 85.6952C201.326 84.8911 204.577 84.324 207.983 83.9954L207.791 82.0046C204.287 82.3427 200.932 82.9271 197.726 83.7594L198.229 85.6952ZM207.991 83.9946C212.058 83.5697 215.346 83.1741 217.85 82.8076L217.56 80.8287C215.095 81.1895 211.837 81.5818 207.783 82.0054L207.991 83.9946ZM217.862 82.8058C220.388 82.4054 222.368 81.8022 223.674 80.9195L222.554 79.2623C221.618 79.8948 219.992 80.4431 217.548 80.8305L217.862 82.8058ZM223.674 80.9195C225.1 79.9556 225.796 78.5062 225.796 76.7273H223.796C223.796 77.918 223.37 78.711 222.554 79.2623L223.674 80.9195ZM225.796 76.7273V76.4545H223.796V76.7273H225.796ZM225.796 76.4545C225.796 73.3482 224.804 70.8202 222.724 69.017L221.414 70.5284C222.97 71.8768 223.796 73.8033 223.796 76.4545H225.796ZM222.73 69.0225C220.699 67.2329 217.885 66.4091 214.432 66.4091V68.4091C217.586 68.4091 219.862 69.161 221.407 70.5229L222.73 69.0225ZM214.432 66.4091C210.807 66.4091 207.8 67.213 205.514 68.9273L206.714 70.5273C208.55 69.1506 211.088 68.4091 214.432 68.4091V66.4091ZM205.522 68.9216C203.296 70.558 201.795 72.6472 201.063 75.1765L202.984 75.7326C203.585 73.6558 204.811 71.9269 206.706 70.5329L205.522 68.9216ZM202.104 74.4578L184.195 73.0033L184.033 74.9967L201.942 76.4513L202.104 74.4578ZM185.092 74.2095C185.968 70.1205 187.685 66.6091 190.235 63.6532L188.721 62.3468C185.937 65.5727 184.078 69.3946 183.136 73.7905L185.092 74.2095ZM190.238 63.6496C192.788 60.6648 196.087 58.361 200.164 56.748L199.428 54.8883C195.08 56.6087 191.501 59.0927 188.717 62.3504L190.238 63.6496ZM200.167 56.7467C204.269 55.1061 209.047 54.2727 214.523 54.2727V52.2727C208.847 52.2727 203.808 53.1363 199.425 54.8897L200.167 56.7467ZM214.523 54.2727C218.323 54.2727 221.952 54.7179 225.411 55.605L225.908 53.6677C222.277 52.7366 218.481 52.2727 214.523 52.2727V54.2727ZM225.413 55.6055C228.885 56.4882 231.94 57.851 234.59 59.6858L235.729 58.0414C232.864 56.0581 229.586 54.6027 225.906 53.6672L225.413 55.6055ZM234.595 59.6887C237.249 61.5065 239.338 63.8396 240.869 66.6992L242.632 65.7553C240.951 62.615 238.646 60.0389 235.725 58.0385L234.595 59.6887ZM240.871 66.703C242.382 69.4967 243.16 72.886 243.16 76.9091H245.16C245.16 72.6292 244.331 68.8973 242.63 65.7516L240.871 66.703ZM243.16 76.9091V124H245.16V76.9091H243.16ZM244.16 123H225.796V125H244.16V123ZM226.796 124V114.318H224.796V124H226.796ZM225.796 113.318H225.25V115.318H225.796V113.318ZM224.361 113.861C223.298 115.93 221.875 117.756 220.087 119.343L221.414 120.839C223.383 119.092 224.961 117.07 226.14 114.775L224.361 113.861ZM220.094 119.337C218.32 120.882 216.175 122.11 213.642 123.013L214.313 124.897C217.053 123.92 219.423 122.573 221.407 120.845L220.094 119.337ZM213.652 123.009C211.142 123.875 208.21 124.318 204.841 124.318V126.318C208.381 126.318 211.541 125.853 214.304 124.9L213.652 123.009ZM210.387 112.955C213.369 112.955 216.045 112.367 218.389 111.162L217.475 109.383C215.456 110.421 213.102 110.955 210.387 110.955V112.955ZM218.399 111.157C220.722 109.931 222.568 108.271 223.911 106.176L222.227 105.097C221.084 106.881 219.506 108.312 217.466 109.388L218.399 111.157ZM223.911 106.176C225.263 104.065 225.932 101.678 225.932 99.0455H223.932C223.932 101.322 223.359 103.329 222.227 105.097L223.911 106.176ZM225.932 99.0455V91.6364H223.932V99.0455H225.932ZM224.387 90.7979C223.887 91.1234 223.148 91.4542 222.132 91.7733L222.732 93.6813C223.838 93.3337 224.766 92.9372 225.477 92.4748L224.387 90.7979ZM222.15 91.7679C221.15 92.0619 220.01 92.3436 218.727 92.6121L219.137 94.5697C220.46 94.2928 221.653 93.9987 222.714 93.6866L222.15 91.7679ZM218.749 92.6078C217.454 92.8488 216.158 93.0748 214.863 93.2857L215.184 95.2597C216.494 95.0464 217.805 94.8178 219.115 94.574L218.749 92.6078ZM214.885 93.2823C213.581 93.4643 212.398 93.6311 211.336 93.7828L211.619 95.7627C212.678 95.6113 213.859 95.4448 215.161 95.2631L214.885 93.2823ZM211.333 93.7833C208.994 94.1263 206.922 94.676 205.129 95.4445L205.917 97.2828C207.518 96.5967 209.416 96.0858 211.623 95.7621L211.333 93.7833ZM205.129 95.4445C203.302 96.2275 201.833 97.3103 200.771 98.7151L202.366 99.9213C203.183 98.8412 204.35 97.9543 205.917 97.2828L205.129 95.4445ZM200.778 98.7056C199.679 100.124 199.16 101.866 199.16 103.864H201.16C201.16 102.225 201.58 100.937 202.359 99.9308L200.778 98.7056ZM199.16 103.864C199.16 106.777 200.234 109.111 202.433 110.717L203.613 109.101C201.994 107.92 201.16 106.223 201.16 103.864H199.16ZM202.448 110.727C204.594 112.236 207.264 112.955 210.387 112.955V110.955C207.571 110.955 205.331 110.309 203.598 109.091L202.448 110.727ZM250.222 124H249.222V125H250.222V124ZM250.222 54.1818V53.1818H249.222V54.1818H250.222ZM269.586 54.1818H270.586V53.1818H269.586V54.1818ZM269.586 124V125H270.586V124H269.586ZM252.54 42.3182L251.85 43.0413L251.855 43.0466L251.861 43.0517L252.54 42.3182ZM252.54 28.5L253.225 29.2285L253.226 29.2282L252.54 28.5ZM267.313 28.5L266.622 29.2231L266.628 29.2284L266.634 29.2336L267.313 28.5ZM267.313 42.3182L267.998 43.0467L267.999 43.0464L267.313 42.3182ZM251.222 124V54.1818H249.222V124H251.222ZM250.222 55.1818H269.586V53.1818H250.222V55.1818ZM268.586 54.1818V124H270.586V54.1818H268.586ZM269.586 123H250.222V125H269.586V123ZM259.95 44.1818C257.316 44.1818 255.091 43.3178 253.22 41.5846L251.861 43.0517C254.111 45.1368 256.826 46.1818 259.95 46.1818V44.1818ZM253.231 41.5951C251.389 39.8356 250.495 37.7751 250.495 35.3636H248.495C248.495 38.3461 249.631 40.9219 251.85 43.0413L253.231 41.5951ZM250.495 35.3636C250.495 32.9865 251.386 30.9582 253.225 29.2285L251.855 27.7715C249.634 29.86 248.495 32.4074 248.495 35.3636H250.495ZM253.226 29.2282C255.097 27.4667 257.321 26.5909 259.95 26.5909V24.5909C256.821 24.5909 254.105 25.6545 251.855 27.7718L253.226 29.2282ZM259.95 26.5909C262.578 26.5909 264.783 27.4664 266.622 29.2231L268.004 27.7769C265.782 25.6548 263.078 24.5909 259.95 24.5909V26.5909ZM266.634 29.2336C268.502 30.9648 269.404 32.9917 269.404 35.3636H271.404C271.404 32.4022 270.245 29.8534 267.993 27.7664L266.634 29.2336ZM269.404 35.3636C269.404 37.77 268.499 39.8291 266.628 41.59L267.999 43.0464C270.249 40.9285 271.404 38.3512 271.404 35.3636H269.404ZM266.628 41.5897C264.79 43.3181 262.583 44.1818 259.95 44.1818V46.1818C263.074 46.1818 265.776 45.1364 267.998 43.0467L266.628 41.5897ZM295.501 30.9091H296.501V29.9091H295.501V30.9091ZM295.501 124V125H296.501V124H295.501ZM276.137 124H275.137V125H276.137V124ZM276.137 30.9091V29.9091H275.137V30.9091H276.137ZM294.501 30.9091V124H296.501V30.9091H294.501ZM295.501 123H276.137V125H295.501V123ZM277.137 124V30.9091H275.137V124H277.137ZM276.137 31.9091H295.501V29.9091H276.137V31.9091ZM373.581 57.6818L372.586 57.7805L372.675 58.6818H373.581V57.6818ZM349.535 47.4545L349.905 48.384L349.916 48.3795L349.535 47.4545ZM344.445 51.1364L343.644 50.5363L343.637 50.5463L344.445 51.1364ZM342.717 56.5L343.717 56.5363L343.717 56.5182V56.5H342.717ZM343.763 60.8636L342.909 61.3842L342.914 61.3918L342.918 61.3992L343.763 60.8636ZM346.99 64.0909L346.435 64.923L346.442 64.9273L346.448 64.9315L346.99 64.0909ZM351.717 66.4091L351.368 67.3461L351.375 67.3487L351.382 67.3512L351.717 66.4091ZM357.445 68.0455L357.677 67.0729L357.67 67.0712L357.663 67.0696L357.445 68.0455ZM365.808 70.0455L365.576 71.018L365.583 71.0197L365.59 71.0213L365.808 70.0455ZM376.99 73.6818L376.582 74.595L376.99 73.6818ZM385.808 79.2727L386.473 78.5258L385.808 79.2727ZM391.581 87.0909L390.671 87.5047L390.674 87.5123L391.581 87.0909ZM393.717 97.4091L394.717 97.4144L394.717 97.4013L393.717 97.4091ZM389.354 112.227L388.53 111.66L388.529 111.662L389.354 112.227ZM376.99 121.909L377.38 122.83L377.383 122.829L376.99 121.909ZM337.945 121.864L337.561 122.787L337.563 122.788L337.945 121.864ZM324.945 111.636L324.118 112.199L324.122 112.205L324.945 111.636ZM320.081 94.7727V93.7727H319.058L319.081 94.7953L320.081 94.7727ZM339.126 94.7727L340.124 94.7049L340.061 93.7727H339.126V94.7727ZM341.808 102.591L341.01 103.193L341.014 103.199L341.019 103.206L341.808 102.591ZM348.217 107.273L347.848 108.202L347.86 108.207L348.217 107.273ZM366.035 107.364L365.672 106.432L365.668 106.434L366.035 107.364ZM371.808 103.318L372.593 103.938L371.808 103.318ZM371.99 92.0909L371.228 92.7391L371.236 92.7483L371.99 92.0909ZM366.626 88.4545L366.232 89.3737L366.237 89.3755L366.626 88.4545ZM358.035 85.7273L357.792 86.6972L357.801 86.6994L358.035 85.7273ZM347.899 83.1818L348.143 82.2119L348.135 82.2102L347.899 83.1818ZM329.308 74.2273L328.642 74.973L329.308 74.2273ZM322.535 57.8182L323.535 57.8226L323.535 57.8128L322.535 57.8182ZM327.035 43.0455L326.226 42.4576L326.224 42.4615L327.035 43.0455ZM375.899 33.1818L375.482 34.0907L375.484 34.0916L375.899 33.1818ZM387.99 43.0455L387.164 43.6097L387.99 43.0455ZM392.445 57.6818V58.6818H393.461L393.444 57.6654L392.445 57.6818ZM374.576 57.5831C374.187 53.6587 372.496 50.5432 369.492 48.3311L368.306 49.9416C370.817 51.7902 372.248 54.3716 372.586 57.7805L374.576 57.5831ZM369.492 48.3311C366.508 46.1342 362.533 45.0909 357.672 45.0909V47.0909C362.265 47.0909 365.775 48.078 368.306 49.9416L369.492 48.3311ZM357.672 45.0909C354.371 45.0909 351.522 45.5571 349.155 46.5296L349.916 48.3795C351.973 47.5338 354.548 47.0909 357.672 47.0909V45.0909ZM349.166 46.5252C346.819 47.4578 344.958 48.7852 343.645 50.5364L345.245 51.7364C346.295 50.336 347.828 49.2089 349.905 48.3839L349.166 46.5252ZM343.637 50.5463C342.357 52.2979 341.717 54.2935 341.717 56.5H343.717C343.717 54.7065 344.229 53.1264 345.252 51.7264L343.637 50.5463ZM341.718 56.4637C341.651 58.2968 342.035 59.951 342.909 61.3842L344.617 60.343C343.975 59.2915 343.662 58.0365 343.717 56.5363L341.718 56.4637ZM342.918 61.3992C343.789 62.7724 344.969 63.9452 346.435 64.923L347.545 63.2589C346.284 62.4184 345.312 61.4397 344.607 60.3281L342.918 61.3992ZM346.448 64.9315C347.882 65.8553 349.524 66.6585 351.368 67.3461L352.067 65.4721C350.335 64.8263 348.825 64.0841 347.532 63.2503L346.448 64.9315ZM351.382 67.3512C353.211 68.0024 355.16 68.5587 357.226 69.0213L357.663 67.0696C355.669 66.6231 353.799 66.0885 352.053 65.467L351.382 67.3512ZM357.212 69.018L365.576 71.018L366.041 69.0729L357.677 67.0729L357.212 69.018ZM365.59 71.0213C369.593 71.9175 373.256 73.1099 376.582 74.595L377.398 72.7687C373.936 71.2234 370.145 69.9915 366.027 69.0696L365.59 71.0213ZM376.582 74.595C379.893 76.0731 382.744 77.8833 385.143 80.0196L386.473 78.5258C383.903 76.2379 380.875 74.3208 377.398 72.7687L376.582 74.595ZM385.143 80.0196C387.525 82.14 389.365 84.6329 390.671 87.5047L392.491 86.6771C391.069 83.5489 389.061 80.8297 386.473 78.5258L385.143 80.0196ZM390.674 87.5123C391.998 90.3622 392.688 93.6566 392.717 97.4169L394.717 97.4013C394.686 93.404 393.951 89.8196 392.488 86.6695L390.674 87.5123ZM392.717 97.4038C392.688 102.925 391.281 107.664 388.53 111.66L390.177 112.794C393.184 108.427 394.686 103.287 394.717 97.4144L392.717 97.4038ZM388.529 111.662C385.805 115.632 381.846 118.748 376.597 120.989L377.383 122.829C382.922 120.464 387.206 117.126 390.178 112.793L388.529 111.662ZM376.6 120.988C371.391 123.196 365.061 124.318 357.581 124.318V126.318C365.252 126.318 371.862 125.168 377.38 122.83L376.6 120.988ZM357.581 124.318C350.166 124.318 343.755 123.182 338.326 120.939L337.563 122.788C343.285 125.152 349.966 126.318 357.581 126.318V124.318ZM338.328 120.94C332.943 118.704 328.769 115.41 325.767 111.068L324.122 112.205C327.363 116.893 331.855 120.418 337.561 122.787L338.328 120.94ZM325.771 111.074C322.811 106.72 321.229 101.297 321.081 94.7501L319.081 94.7953C319.236 101.643 320.897 107.462 324.118 112.199L325.771 111.074ZM320.081 95.7727H339.126V93.7727H320.081V95.7727ZM338.129 94.8405C338.351 98.1171 339.296 100.919 341.01 103.193L342.607 101.989C341.169 100.081 340.326 97.6708 340.124 94.7049L338.129 94.8405ZM341.019 103.206C342.745 105.42 345.033 107.082 347.848 108.202L348.587 106.344C346.069 105.342 344.083 103.883 342.597 101.976L341.019 103.206ZM347.86 108.207C350.689 109.288 353.859 109.818 357.354 109.818V107.818C354.061 107.818 351.139 107.318 348.574 106.339L347.86 108.207ZM357.354 109.818C360.781 109.818 363.805 109.32 366.403 108.294L365.668 106.434C363.357 107.347 360.593 107.818 357.354 107.818V109.818ZM366.399 108.295C369.014 107.275 371.098 105.832 372.593 103.938L371.023 102.699C369.791 104.259 368.026 105.513 365.672 106.432L366.399 108.295ZM372.593 103.938C374.099 102.03 374.854 99.8263 374.854 97.3636H372.854C372.854 99.3858 372.245 101.151 371.023 102.699L372.593 103.938ZM374.854 97.3636C374.854 95.0586 374.162 93.0597 372.744 91.4335L371.236 92.7483C372.303 93.9706 372.854 95.4868 372.854 97.3636H374.854ZM372.752 91.4428C371.408 89.8641 369.473 88.5729 367.016 87.5336L366.237 89.3755C368.507 90.3362 370.148 91.4692 371.228 92.739L372.752 91.4428ZM367.02 87.5354C364.62 86.5068 361.7 85.582 358.27 84.7551L357.801 86.6994C361.159 87.509 363.966 88.4023 366.232 89.3737L367.02 87.5354ZM358.279 84.7574L348.143 82.2119L347.656 84.1517L357.792 86.6972L358.279 84.7574ZM348.135 82.2102C340.397 80.3277 334.364 77.4028 329.974 73.4815L328.642 74.973C333.343 79.1729 339.705 82.2177 347.663 84.1535L348.135 82.2102ZM329.974 73.4815C325.671 69.6373 323.506 64.456 323.535 57.8226L321.535 57.8138C321.504 64.9379 323.854 70.696 328.642 74.973L329.974 73.4815ZM323.535 57.8128C323.506 52.3686 324.951 47.655 327.847 43.6295L326.224 42.4615C323.059 46.8602 321.504 51.995 321.535 57.8236L323.535 57.8128ZM327.844 43.6333C330.789 39.5802 334.839 36.3971 340.032 34.0961L339.221 32.2676C333.747 34.6938 329.403 38.0865 326.226 42.4576L327.844 43.6333ZM340.032 34.0961C345.218 31.7975 351.137 30.6364 357.808 30.6364V28.6364C350.903 28.6364 344.701 29.8389 339.221 32.2676L340.032 34.0961ZM357.808 30.6364C364.604 30.6364 370.487 31.7988 375.482 34.0907L376.316 32.2729C371.008 29.8376 364.83 28.6364 357.808 28.6364V30.6364ZM375.484 34.0916C380.52 36.3887 384.4 39.5651 387.164 43.6097L388.816 42.4812C385.822 38.1016 381.642 34.7022 376.314 32.272L375.484 34.0916ZM387.164 43.6097C389.923 47.6461 391.357 52.3307 391.445 57.6982L393.444 57.6654C393.351 51.942 391.814 46.869 388.816 42.4812L387.164 43.6097ZM392.445 56.6818H373.581V58.6818H392.445V56.6818ZM397.632 124H396.632V125H397.632V124ZM397.632 54.1818V53.1818H396.632V54.1818H397.632ZM416.996 54.1818H417.996V53.1818H416.996V54.1818ZM416.996 124V125H417.996V124H416.996ZM399.95 42.3182L399.26 43.0413L399.265 43.0466L399.271 43.0517L399.95 42.3182ZM399.95 28.5L400.635 29.2285L400.636 29.2282L399.95 28.5ZM414.723 28.5L414.032 29.2231L414.038 29.2284L414.044 29.2336L414.723 28.5ZM414.723 42.3182L415.408 43.0467L415.409 43.0464L414.723 42.3182ZM398.632 124V54.1818H396.632V124H398.632ZM397.632 55.1818H416.996V53.1818H397.632V55.1818ZM415.996 54.1818V124H417.996V54.1818H415.996ZM416.996 123H397.632V125H416.996V123ZM407.36 44.1818C404.726 44.1818 402.501 43.3178 400.63 41.5846L399.271 43.0517C401.521 45.1368 404.236 46.1818 407.36 46.1818V44.1818ZM400.641 41.5951C398.799 39.8356 397.905 37.7751 397.905 35.3636H395.905C395.905 38.3461 397.041 40.9219 399.26 43.0413L400.641 41.5951ZM397.905 35.3636C397.905 32.9865 398.796 30.9582 400.635 29.2285L399.265 27.7715C397.044 29.86 395.905 32.4074 395.905 35.3636H397.905ZM400.636 29.2282C402.507 27.4667 404.731 26.5909 407.36 26.5909V24.5909C404.231 24.5909 401.515 25.6545 399.265 27.7718L400.636 29.2282ZM407.36 26.5909C409.988 26.5909 412.193 27.4664 414.032 29.2231L415.414 27.7769C413.192 25.6548 410.488 24.5909 407.36 24.5909V26.5909ZM414.044 29.2336C415.912 30.9648 416.814 32.9917 416.814 35.3636H418.814C418.814 32.4022 417.655 29.8534 415.403 27.7664L414.044 29.2336ZM416.814 35.3636C416.814 37.77 415.909 39.8291 414.038 41.59L415.409 43.0464C417.659 40.9285 418.814 38.3512 418.814 35.3636H416.814ZM414.038 41.5897C412.2 43.3181 409.993 44.1818 407.36 44.1818V46.1818C410.484 46.1818 413.186 45.1364 415.408 43.0467L414.038 41.5897ZM423.547 124H422.547V125H423.547V124ZM423.547 54.1818V53.1818H422.547V54.1818H423.547ZM442.002 54.1818H443.002V53.1818H442.002V54.1818ZM442.002 66.5H441.002V67.5H442.002V66.5ZM442.82 66.5V67.5H443.526L443.762 66.835L442.82 66.5ZM450.093 56.8182L449.521 55.9976L450.093 56.8182ZM474.502 56.8636L473.922 57.6784L473.927 57.6818L474.502 56.8636ZM481.229 66.5L480.265 66.7662L480.468 67.5H481.229V66.5ZM481.956 66.5V67.5H482.662L482.898 66.8354L481.956 66.5ZM489.684 56.9091L490.224 57.7505L490.226 57.7494L489.684 56.9091ZM518.865 59.5L518.151 60.1993L518.156 60.2045L518.865 59.5ZM525.002 124V125H526.002V124H525.002ZM505.684 124H504.684V125H505.684V124ZM502.593 72.1364L501.907 72.8646L502.593 72.1364ZM486.638 72.5909L487.385 73.2559L487.389 73.2508L486.638 72.5909ZM483.684 124V125H484.684V124H483.684ZM464.911 124H463.911V125H464.911V124ZM461.956 72.2727L461.233 72.9635L461.239 72.969L461.956 72.2727ZM448.456 70.8636L448.986 71.7116L448.99 71.7091L448.456 70.8636ZM444.411 75.3636L445.297 75.8277L445.3 75.8219L444.411 75.3636ZM442.911 124V125H443.911V124H442.911ZM424.547 124V54.1818H422.547V124H424.547ZM423.547 55.1818H442.002V53.1818H423.547V55.1818ZM441.002 54.1818V66.5H443.002V54.1818H441.002ZM442.002 67.5H442.82V65.5H442.002V67.5ZM443.762 66.835C445.151 62.9303 447.45 59.877 450.664 57.6388L449.521 55.9976C445.947 58.4866 443.399 61.8879 441.878 66.165L443.762 66.835ZM450.664 57.6388C453.867 55.4081 457.721 54.2727 462.275 54.2727V52.2727C457.373 52.2727 453.106 53.501 449.521 55.9976L450.664 57.6388ZM462.275 54.2727C466.889 54.2727 470.754 55.4234 473.922 57.6784L475.082 56.0489C471.523 53.516 467.236 52.2727 462.275 52.2727V54.2727ZM473.927 57.6818C477.096 59.9086 479.204 62.9231 480.265 66.7662L482.193 66.2338C481.012 61.9557 478.635 58.546 475.077 56.0454L473.927 57.6818ZM481.229 67.5H481.956V65.5H481.229V67.5ZM482.898 66.8354C484.245 63.0534 486.674 60.0304 490.224 57.7505L489.143 56.0677C485.238 58.5756 482.516 61.9466 481.014 66.1646L482.898 66.8354ZM490.226 57.7494C493.799 55.4439 498.044 54.2727 503.002 54.2727V52.2727C497.717 52.2727 493.083 53.5258 489.142 56.0688L490.226 57.7494ZM503.002 54.2727C509.284 54.2727 514.302 56.2643 518.151 60.1992L519.58 58.8008C515.308 54.4326 509.75 52.2727 503.002 52.2727V54.2727ZM518.156 60.2045C522.009 64.0864 524.002 69.65 524.002 77.0455H526.002C526.002 69.2894 523.904 63.156 519.575 58.7955L518.156 60.2045ZM524.002 77.0455V124H526.002V77.0455H524.002ZM525.002 123H505.684V125H525.002V123ZM506.684 124V80.8636H504.684V124H506.684ZM506.684 80.8636C506.684 76.8147 505.605 73.5984 503.278 71.4082L501.907 72.8646C503.701 74.5531 504.684 77.155 504.684 80.8636H506.684ZM503.278 71.4082C501.014 69.2774 498.185 68.2273 494.865 68.2273V70.2273C497.727 70.2273 500.05 71.1166 501.907 72.8646L503.278 71.4082ZM494.865 68.2273C491.119 68.2273 488.081 69.4335 485.887 71.931L487.389 73.2508C489.135 71.2635 491.582 70.2273 494.865 70.2273V68.2273ZM485.891 71.9259C483.724 74.3605 482.684 77.5404 482.684 81.3636H484.684C484.684 77.9142 485.613 75.2456 487.385 73.2559L485.891 71.9259ZM482.684 81.3636V124H484.684V81.3636H482.684ZM483.684 123H464.911V125H483.684V123ZM465.911 124V80.4545H463.911V124H465.911ZM465.911 80.4545C465.911 76.8285 464.862 73.8312 462.674 71.5764L461.239 72.969C462.991 74.7748 463.911 77.2321 463.911 80.4545H465.911ZM462.679 71.582C460.525 69.327 457.69 68.2273 454.275 68.2273V70.2273C457.223 70.2273 459.508 71.1578 461.233 72.9635L462.679 71.582ZM454.275 68.2273C451.945 68.2273 449.818 68.8208 447.922 70.0182L448.99 71.7091C450.549 70.7246 452.302 70.2273 454.275 70.2273V68.2273ZM447.926 70.0156C446.063 71.18 444.597 72.8211 443.522 74.9053L445.3 75.8219C446.225 74.0274 447.455 72.6684 448.986 71.7116L447.926 70.0156ZM443.525 74.8996C442.437 76.9773 441.911 79.3849 441.911 82.0909H443.911C443.911 79.6454 444.385 77.5681 445.297 75.8276L443.525 74.8996ZM441.911 82.0909V124H443.911V82.0909H441.911ZM442.911 123H423.547V125H442.911V123ZM531.337 150.182H530.337V151.182H531.337V150.182ZM531.337 54.1818V53.1818H530.337V54.1818H531.337ZM550.428 54.1818H551.428V53.1818H550.428V54.1818ZM550.428 65.9091H549.428V66.9091H550.428V65.9091ZM551.292 65.9091V66.9091H551.937L552.203 66.3207L551.292 65.9091ZM554.974 60.1818L554.204 59.5428L554.203 59.544L554.974 60.1818ZM561.337 55.2727L561.784 56.1672L561.789 56.1651L561.337 55.2727ZM585.246 57.2727L584.72 58.1227L584.724 58.1254L585.246 57.2727ZM595.565 69.2273L594.664 69.6622L594.665 69.6642L595.565 69.2273ZM595.655 108.909L594.75 108.485L594.749 108.487L595.655 108.909ZM585.474 121.045L586.012 121.888L586.013 121.887L585.474 121.045ZM561.519 123.273L561.089 124.175L561.093 124.177L561.519 123.273ZM555.11 118.591L554.357 119.249L554.362 119.255L555.11 118.591ZM551.292 112.818L552.203 112.405L551.937 111.818H551.292V112.818ZM550.701 112.818V111.818H549.701V112.818H550.701ZM550.701 150.182V151.182H551.701V150.182H550.701ZM557.019 107.182L556.398 107.966L556.405 107.971L557.019 107.182ZM572.974 107.136L573.594 107.92L573.601 107.915L572.974 107.136ZM577.928 99.8636L576.99 99.5175L576.988 99.5226L577.928 99.8636ZM577.974 78.4545L578.913 78.1106L577.974 78.4545ZM573.019 71.2727L573.64 70.4887L573.019 71.2727ZM556.974 71.1818L556.367 70.3871L556.361 70.3913L556.974 71.1818ZM552.019 78.2727L551.083 77.9206L552.019 78.2727ZM532.337 150.182V54.1818H530.337V150.182H532.337ZM531.337 55.1818H550.428V53.1818H531.337V55.1818ZM549.428 54.1818V65.9091H551.428V54.1818H549.428ZM550.428 66.9091H551.292V64.9091H550.428V66.9091ZM552.203 66.3207C553.008 64.5389 554.183 62.7048 555.744 60.8196L554.203 59.544C552.552 61.5376 551.273 63.5217 550.38 65.4975L552.203 66.3207ZM555.743 60.8208C557.279 58.9714 559.285 57.4168 561.784 56.1672L560.89 54.3783C558.177 55.7347 555.941 57.4529 554.204 59.5428L555.743 60.8208ZM561.789 56.1651C564.247 54.9216 567.355 54.2727 571.155 54.2727V52.2727C567.138 52.2727 563.7 52.9572 560.886 54.3804L561.789 56.1651ZM571.155 54.2727C576.061 54.2727 580.576 55.5547 584.72 58.1227L585.773 56.4227C581.311 53.6574 576.431 52.2727 571.155 52.2727V54.2727ZM584.724 58.1254C588.837 60.6453 592.157 64.4709 594.664 69.6622L596.465 68.7924C593.821 63.3169 590.262 59.1729 585.769 56.42L584.724 58.1254ZM594.665 69.6642C597.155 74.7915 598.428 81.2819 598.428 89.1818H600.428C600.428 81.0817 599.125 74.2691 596.464 68.7904L594.665 69.6642ZM598.428 89.1818C598.428 96.8671 597.187 103.289 594.75 108.485L596.561 109.334C599.155 103.802 600.428 97.0723 600.428 89.1818H598.428ZM594.749 108.487C592.332 113.675 589.055 117.563 584.934 120.204L586.013 121.887C590.499 119.013 594.009 114.81 596.562 109.331L594.749 108.487ZM584.936 120.203C580.831 122.822 576.232 124.136 571.11 124.136V126.136C576.594 126.136 581.571 124.723 586.012 121.888L584.936 120.203ZM571.11 124.136C567.459 124.136 564.416 123.532 561.945 122.368L561.093 124.177C563.895 125.498 567.246 126.136 571.11 126.136V124.136ZM561.949 122.37C559.446 121.177 557.424 119.692 555.858 117.927L554.362 119.255C556.13 121.247 558.38 122.884 561.089 124.175L561.949 122.37ZM555.863 117.933C554.249 116.084 553.034 114.241 552.203 112.405L550.381 113.231C551.307 115.274 552.638 117.279 554.357 119.249L555.863 117.933ZM551.292 111.818H550.701V113.818H551.292V111.818ZM549.701 112.818V150.182H551.701V112.818H549.701ZM550.701 149.182H531.337V151.182H550.701V149.182ZM549.292 89.0909C549.292 93.3321 549.88 97.0764 551.082 100.304L552.956 99.6054C551.855 96.6509 551.292 93.1528 551.292 89.0909H549.292ZM551.082 100.304C552.285 103.534 554.049 106.106 556.398 107.966L557.64 106.398C555.626 104.803 554.056 102.557 552.956 99.6054L551.082 100.304ZM556.405 107.971C558.785 109.822 561.66 110.727 564.974 110.727V108.727C562.045 108.727 559.617 107.935 557.633 106.392L556.405 107.971ZM564.974 110.727C568.319 110.727 571.213 109.806 573.594 107.92L572.353 106.352C570.371 107.921 567.931 108.727 564.974 108.727V110.727ZM573.601 107.915C575.948 106.024 577.696 103.437 578.868 100.205L576.988 99.5226C575.918 102.472 574.363 104.733 572.346 106.358L573.601 107.915ZM578.866 100.21C580.067 96.9563 580.655 93.2444 580.655 89.0909H578.655C578.655 93.0586 578.093 96.5285 576.99 99.5175L578.866 100.21ZM580.655 89.0909C580.655 84.97 580.082 81.3039 578.913 78.1106L577.035 78.7985C578.107 81.7264 578.655 85.1512 578.655 89.0909H580.655ZM578.913 78.1106C577.739 74.9068 575.99 72.3489 573.64 70.4887L572.398 72.0568C574.412 73.6511 575.966 75.8811 577.035 78.7985L578.913 78.1106ZM573.64 70.4887C571.256 68.6018 568.347 67.6818 564.974 67.6818V69.6818C567.964 69.6818 570.418 70.4891 572.398 72.0568L573.64 70.4887ZM564.974 67.6818C561.637 67.6818 558.748 68.5681 556.367 70.3871L557.581 71.9765C559.563 70.4622 562.008 69.6818 564.974 69.6818V67.6818ZM556.361 70.3913C554.036 72.1923 552.287 74.7219 551.083 77.9206L552.955 78.6249C554.055 75.7024 555.608 73.5047 557.586 71.9724L556.361 70.3913ZM551.083 77.9206C549.88 81.1195 549.292 84.8501 549.292 89.0909H551.292C551.292 85.0287 551.856 81.5471 552.955 78.6249L551.083 77.9206ZM622.741 30.9091H623.741V29.9091H622.741V30.9091ZM622.741 124V125H623.741V124H622.741ZM603.377 124H602.377V125H603.377V124ZM603.377 30.9091V29.9091H602.377V30.9091H603.377ZM621.741 30.9091V124H623.741V30.9091H621.741ZM622.741 123H603.377V125H622.741V123ZM604.377 124V30.9091H602.377V124H604.377ZM603.377 31.9091H622.741V29.9091H603.377V31.9091ZM790.708 74.0909L790.77 75.089L791.84 75.0231L791.7 73.96L790.708 74.0909ZM772.981 75.1818L772 75.3779L772.171 76.2335L773.042 76.1799L772.981 75.1818ZM771.026 71.0909L770.247 71.718L770.255 71.7273L771.026 71.0909ZM767.072 68.1364L766.645 69.0408L766.655 69.0456L766.666 69.0502L767.072 68.1364ZM753.708 68.9091L754.225 69.7655L754.234 69.7599L753.708 68.9091ZM752.617 78.1364L751.964 78.8932L752.617 78.1364ZM759.481 80.9091L759.271 81.8868L759.283 81.8894L759.481 80.9091ZM772.117 83.4545L772.318 82.475L772.315 82.4742L772.117 83.4545ZM787.299 90.1818L786.619 90.9151L787.299 90.1818ZM788.254 114.409L787.465 113.794L787.462 113.798L788.254 114.409ZM777.254 122.5L777.634 123.425L777.637 123.423L777.254 122.5ZM739.117 119.591L738.538 120.406L738.543 120.41L739.117 119.591ZM729.526 103.773L729.474 102.774L728.384 102.831L728.536 103.912L729.526 103.773ZM748.572 102.773L749.552 102.573L749.379 101.729L748.519 101.774L748.572 102.773ZM752.754 109.227L752.196 110.058L752.204 110.063L752.754 109.227ZM769.435 109.455L769.97 110.3L769.973 110.298L769.435 109.455ZM772.617 104.318L773.617 104.333L773.617 104.317L773.617 104.301L772.617 104.318ZM770.39 100L769.769 100.784L769.779 100.792L770.39 100ZM763.663 97.3636L763.859 96.3831L763.858 96.3829L763.663 97.3636ZM751.572 94.9545L751.376 95.9351L751.376 95.9353L751.572 94.9545ZM736.345 87.8636L735.631 88.5643L735.634 88.5675L736.345 87.8636ZM735.026 63.4091L734.229 62.8055L734.225 62.8103L735.026 63.4091ZM745.345 55.9091L744.978 54.9789L744.975 54.9797L745.345 55.9091ZM781.799 58.8636L781.206 59.6688L781.208 59.6705L781.799 58.8636ZM790.647 73.0928L772.919 74.1837L773.042 76.1799L790.77 75.089L790.647 73.0928ZM773.961 74.9857C773.626 73.3059 772.901 71.7916 771.798 70.4545L770.255 71.7273C771.152 72.8144 771.73 74.0274 772 75.3779L773.961 74.9857ZM771.805 70.4639C770.694 69.0831 769.242 68.0064 767.478 67.2225L766.666 69.0502C768.175 69.7209 769.359 70.6139 770.247 71.7179L771.805 70.4639ZM767.498 67.2319C765.729 66.3971 763.651 66 761.299 66V68C763.432 68 765.203 68.3604 766.645 69.0408L767.498 67.2319ZM761.299 66C758.158 66 755.435 66.6672 753.183 68.0583L754.234 69.7599C756.103 68.6056 758.441 68 761.299 68V66ZM753.192 68.0527C750.885 69.4437 749.617 71.4092 749.617 73.9091H751.617C751.617 72.2271 752.41 70.8593 754.225 69.7655L753.192 68.0527ZM749.617 73.9091C749.617 75.8847 750.425 77.564 751.964 78.8932L753.271 77.3795C752.143 76.4056 751.617 75.2668 751.617 73.9091H749.617ZM751.964 78.8932C753.493 80.2138 755.985 81.1806 759.271 81.8868L759.691 79.9314C756.492 79.2437 754.408 78.3619 753.271 77.3795L751.964 78.8932ZM759.283 81.8894L771.92 84.4349L772.315 82.4742L759.678 79.9288L759.283 81.8894ZM771.916 84.4341C778.612 85.8091 783.473 87.9974 786.619 90.9151L787.979 89.4485C784.459 86.1844 779.199 83.8879 772.318 82.475L771.916 84.4341ZM786.619 90.9151C789.725 93.7955 791.299 97.5787 791.299 102.364H793.299C793.299 97.088 791.539 92.75 787.979 89.4485L786.619 90.9151ZM791.299 102.364C791.299 106.727 790.019 110.523 787.465 113.794L789.042 115.024C791.882 111.386 793.299 107.152 793.299 102.364H791.299ZM787.462 113.798C784.918 117.094 781.401 119.693 776.87 121.577L777.637 123.423C782.439 121.428 786.256 118.633 789.045 115.02L787.462 113.798ZM776.873 121.575C772.38 123.425 767.165 124.364 761.208 124.364V126.364C767.373 126.364 772.855 125.393 777.634 123.425L776.873 121.575ZM761.208 124.364C752.095 124.364 744.955 122.466 739.692 118.772L738.543 120.41C744.249 124.413 751.836 126.364 761.208 126.364V124.364ZM739.697 118.776C734.468 115.057 731.418 110.03 730.517 103.633L728.536 103.912C729.514 110.849 732.858 116.367 738.538 120.406L739.697 118.776ZM729.579 104.771L748.624 103.771L748.519 101.774L729.474 102.774L729.579 104.771ZM747.592 102.973C748.216 106.026 749.748 108.414 752.196 110.058L753.311 108.397C751.335 107.071 750.079 105.156 749.552 102.573L747.592 102.973ZM752.204 110.063C754.622 111.653 757.663 112.409 761.254 112.409V110.409C757.936 110.409 755.309 109.711 753.303 108.392L752.204 110.063ZM761.254 112.409C764.766 112.409 767.698 111.736 769.97 110.3L768.901 108.609C767.051 109.779 764.53 110.409 761.254 110.409V112.409ZM769.973 110.298C772.287 108.822 773.581 106.826 773.617 104.333L771.617 104.304C771.593 105.992 770.766 107.42 768.898 108.611L769.973 110.298ZM773.617 104.301C773.581 102.224 772.683 100.505 771.001 99.208L769.779 100.792C771.006 101.737 771.593 102.897 771.617 104.335L773.617 104.301ZM771.011 99.216C769.376 97.9216 766.953 97.002 763.859 96.3831L763.467 98.3442C766.433 98.9374 768.495 99.7754 769.769 100.784L771.011 99.216ZM763.858 96.3829L751.767 93.9738L751.376 95.9353L763.467 98.3444L763.858 96.3829ZM751.768 93.974C745.058 92.632 740.197 90.3302 737.055 87.1597L735.634 88.5675C739.159 92.1243 744.449 94.5498 751.376 95.9351L751.768 93.974ZM737.058 87.163C733.959 84.0069 732.39 79.9803 732.39 75H730.39C730.39 80.4439 732.124 84.9931 735.631 88.5643L737.058 87.163ZM732.39 75C732.39 70.7065 733.546 67.0588 735.827 64.0079L734.225 62.8103C731.658 66.2442 730.39 70.3238 730.39 75H732.39ZM735.824 64.0127C738.15 60.9392 741.43 58.5402 745.714 56.8384L744.975 54.9797C740.411 56.7931 736.812 59.3942 734.229 62.8055L735.824 64.0127ZM745.712 56.8393C750.024 55.1377 755.107 54.2727 760.981 54.2727V52.2727C754.915 52.2727 749.574 53.1654 744.978 54.9789L745.712 56.8393ZM760.981 54.2727C769.669 54.2727 776.374 56.11 781.206 59.6688L782.392 58.0585C777.103 54.1627 769.929 52.2727 760.981 52.2727V54.2727ZM781.208 59.6705C786.072 63.2317 788.903 68.0599 789.717 74.2218L791.7 73.96C790.816 67.2734 787.708 61.9501 782.39 58.0568L781.208 59.6705Z" fill="black" mask="url(#path-1-outside-1_503_337)"/>
</g>
<circle cx="678" cy="90" r="50" fill="#23254B"/>
<path d="M644.489 83.6321C646.605 85.5717 650.101 85.6428 652.778 85.6872C658.476 85.7816 663.975 85.1217 669.232 82.8238C673.368 81.0157 677.896 78.5151 680.096 74.3708C682.207 70.396 681.274 62.8488 675.781 62.4791C669.462 62.0538 664.02 62.942 659.779 67.9043C654.252 74.3713 648.398 82.0986 646.681 90.5781C645.497 96.4275 646.987 101.847 649.641 107.114C652.987 113.755 658.13 116.905 665.19 118.842C672.083 120.732 679.257 119.225 685.727 116.43C697.232 111.46 705.997 101.672 714.333 92.6469C717.438 89.2849 720.746 85.8736 723.211 81.9881C724.191 80.4419 724.9 78.8111 725.019 76.9739C725.061 76.3219 725.015 75.7031 724.389 75.4942" stroke="white" stroke-width="9" stroke-linecap="round"/>
<defs>
<filter id="filter0_d_503_337" x="8.09094" y="25.5908" width="792.208" height="132.591" filterUnits="userSpaceOnUse" color-interpolation-filters="sRGB">
<feFlood flood-opacity="0" result="BackgroundImageFix"/>
<feColorMatrix in="SourceAlpha" type="matrix" values="0 0 0 0 0 0 0 0 0 0 0 0 0 0 0 0 0 0 127 0" result="hardAlpha"/>
<feOffset dx="8" dy="8"/>
<feComposite in2="hardAlpha" operator="out"/>
<feColorMatrix type="matrix" values="0 0 0 0 0 0 0 0 0 0 0 0 0 0 0 0 0 0 0.5 0"/>
<feBlend mode="normal" in2="BackgroundImageFix" result="effect1_dropShadow_503_337"/>
<feBlend mode="normal" in="SourceGraphic" in2="effect1_dropShadow_503_337" result="shape"/>
</filter>
</defs>
</svg>
